<svg width="40" height="40" viewBox="0 0 40 40" fill="none" xmlns="http://www.w3.org/2000/svg">
<path d="M38.6328 2.72937H1.36719C0.613359 2.72937 0 3.34273 0 4.09656V8.90867C0 9.66625 1.17188 9.66625 1.17188 8.90867V4.09656C1.17188 3.9889 1.25945 3.90125 1.36719 3.90125H38.6328C38.7405 3.90125 38.8281 3.9889 38.8281 4.09656V32.6699C38.8281 32.7776 38.7405 32.8652 38.6328 32.8652H31.1241V31.646H37.0173C37.341 31.646 37.6033 31.3837 37.6033 31.0601V24.9242C37.6033 24.1666 36.4314 24.1666 36.4314 24.9242V30.4741H31.1241V27.8744C31.1431 27.876 31.1623 27.8777 31.1804 27.8793C31.6668 27.922 32.2718 27.9752 32.6909 27.5553C33.1096 27.1359 33.0566 26.5302 33.0141 26.0436C32.9682 25.5213 33.0176 25.3784 33.419 25.0447C34.4525 24.1853 34.4717 23.2652 33.419 22.39C33.0176 22.0561 32.9684 21.9133 33.0141 21.3909C33.1287 20.0802 32.5166 19.4379 31.1804 19.5553C30.6589 19.6011 30.5174 19.5516 30.1849 19.1501C29.3269 18.1141 28.4061 18.095 27.5321 19.1501C27.1996 19.5515 27.0582 19.6012 26.5367 19.5553C25.2251 19.4401 24.5859 20.0557 24.703 21.3909C24.7486 21.9134 24.6995 22.0561 24.298 22.39C23.2645 23.2493 23.2454 24.1696 24.298 25.0447C24.6995 25.3786 24.7486 25.5214 24.703 26.0437C24.5799 27.4476 25.2504 27.9904 26.5928 27.8745V30.4743H3.56867V6.29226H36.4314V21.7992C36.4314 22.5568 37.6033 22.5568 37.6033 21.7992V5.70632C37.6033 5.38273 37.341 5.12039 37.0173 5.12039H2.98273C2.65906 5.12039 2.3968 5.38273 2.3968 5.70632V31.0601C2.3968 31.3837 2.65906 31.646 2.98273 31.646H26.5928V32.8652H1.36719C1.25945 32.8652 1.17188 32.7776 1.17188 32.6699V11.8773C1.17188 11.1198 0 11.1198 0 11.8773V32.6699C0 33.4237 0.613359 34.0371 1.36719 34.0371H26.5928V36.6894C26.6763 37.171 26.954 37.3481 27.4259 37.2207L28.8584 36.5544L30.291 37.2207C30.6455 37.3855 31.1241 37.125 31.1241 36.6894V34.0371H38.6328C39.3866 34.0371 40 33.4237 40 32.6699V4.09656C40 3.34265 39.3866 2.72937 38.6328 2.72937ZM26.434 26.7118C25.8474 26.7634 25.819 26.732 25.8702 26.1458C25.949 25.246 25.742 24.721 25.0471 24.1434C24.5716 23.748 24.5717 23.6863 25.0471 23.2909C25.742 22.7133 25.9491 22.1883 25.8702 21.2886C25.819 20.7023 25.8474 20.6712 26.434 20.7225C27.3338 20.8018 27.8581 20.5933 28.4345 19.8974C28.8283 19.4221 28.8885 19.4221 29.2823 19.8974C29.8588 20.5933 30.383 20.8015 31.2828 20.7225C31.8695 20.6709 31.8978 20.7023 31.8466 21.2885C31.7678 22.1883 31.9748 22.7132 32.6697 23.2909C33.1451 23.6862 33.1453 23.748 32.6696 24.1434C31.9747 24.7211 31.7677 25.2459 31.8465 26.1456C31.898 26.7319 31.8694 26.7634 31.2829 26.7118C30.9148 26.6795 30.4973 26.6427 30.1298 26.7954C29.7741 26.9431 29.5241 27.2449 29.2823 27.5369C29.1684 27.6744 28.9605 27.9254 28.8583 27.9703C28.7562 27.9254 28.5483 27.6744 28.4344 27.5369C28.1926 27.245 27.9426 26.9431 27.5868 26.7954C27.2076 26.6798 26.8233 26.6519 26.434 26.7118ZM29.1055 35.377C28.9488 35.3041 28.768 35.3041 28.6113 35.377L27.7647 35.7708V28.556C28.0427 28.8617 28.3858 29.1455 28.8584 29.1455C29.3311 29.1455 29.6741 28.8618 29.9522 28.5561V35.7708L29.1055 35.377Z" fill="#1A1A1A"/>
<path d="M7.59888 11.1971H27.7979C28.5554 11.1971 28.5554 10.0252 27.7979 10.0252H7.59888C6.84123 10.0252 6.84123 11.1971 7.59888 11.1971Z" fill="#1A1A1A"/>
<path d="M32.9873 14.175C32.9873 13.8514 32.725 13.589 32.4014 13.589H7.5987C6.84112 13.589 6.84112 14.7609 7.5987 14.7609H32.4014C32.725 14.7609 32.9873 14.4986 32.9873 14.175Z" fill="#1A1A1A"/>
<path d="M22.2764 17.7387C22.2764 17.4151 22.0141 17.1527 21.6904 17.1527H7.5987C6.84112 17.1527 6.84112 18.3246 7.5987 18.3246H21.6904C22.014 18.3246 22.2764 18.0623 22.2764 17.7387Z" fill="#1A1A1A"/>
<path d="M14.5822 25.906C14.2628 25.9066 13.9433 25.907 13.6238 25.9072C13.0092 25.9077 12.6708 25.7438 12.5453 25.0921C12.4307 24.4972 11.5726 24.573 11.4153 25.0921C11.3457 25.322 10.9941 25.9802 10.687 25.9264C10.5243 25.8979 10.4532 25.6469 10.393 25.5169C10.2759 25.2638 10.1906 24.9956 10.1176 24.7269C9.80912 23.5914 9.74756 22.4059 9.55459 21.249C9.44271 20.5781 8.42013 20.7678 8.40365 21.4048C8.35115 23.4337 8.01943 25.4349 7.29709 27.3367C7.02904 28.0424 8.16146 28.3476 8.42709 27.6483C8.7056 26.915 8.9267 26.1641 9.09826 25.4021C9.19029 25.6798 9.30006 25.9521 9.43404 26.217C9.77623 26.8933 10.4741 27.2934 11.2208 26.9926C11.4873 26.8852 11.7304 26.6976 11.9374 26.4692C12.4918 27.1085 13.3165 27.0795 14.086 27.0786C15.2459 27.0771 16.4058 27.0744 17.5658 27.0712C18.3198 27.0691 18.3212 25.8972 17.5658 25.8993C16.5713 25.9021 15.5768 25.9044 14.5822 25.906Z" fill="#1A1A1A"/>
<path d="M28.8587 26.0057C30.1206 26.0057 31.1473 24.9791 31.1473 23.7171C31.1473 22.4552 30.1206 21.4285 28.8587 21.4285C27.5968 21.4285 26.5701 22.4552 26.5701 23.7171C26.5701 24.979 27.5967 26.0057 28.8587 26.0057ZM28.8587 22.6004C29.4744 22.6004 29.9755 23.1014 29.9755 23.7171C29.9755 24.3328 29.4744 24.8338 28.8587 24.8338C28.2429 24.8338 27.7419 24.3329 27.7419 23.7171C27.7419 23.1013 28.2429 22.6004 28.8587 22.6004Z" fill="#1A1A1A"/>
</svg>
