<svg width="32" height="32" viewBox="0 0 32 32" fill="none" xmlns="http://www.w3.org/2000/svg">
<path d="M29.7656 15.9094C29.7835 15.9412 29.8004 15.9715 29.8163 16C29.8004 16.0286 29.7835 16.0588 29.7656 16.0907C29.6081 16.3706 29.3712 16.7741 29.0575 17.2598C28.4292 18.2327 27.4979 19.528 26.2862 20.8204C23.8492 23.4199 20.3671 25.9167 16 25.9167C11.633 25.9167 8.15085 23.4199 5.71386 20.8204C4.50221 19.528 3.57089 18.2327 2.94257 17.2598C2.62888 16.7741 2.39193 16.3706 2.23445 16.0907C2.21654 16.0588 2.19967 16.0286 2.18383 16C2.19967 15.9715 2.21654 15.9412 2.23445 15.9094C2.39193 15.6294 2.62888 15.226 2.94257 14.7403C3.57089 13.7674 4.50221 12.4721 5.71386 11.1797C8.15085 8.58021 11.633 6.08337 16 6.08337C20.3671 6.08337 23.8492 8.58021 26.2862 11.1797C27.4979 12.4721 28.4292 13.7674 29.0575 14.7403C29.3712 15.226 29.6081 15.6294 29.7656 15.9094Z" stroke="#1A1A1A" stroke-width="1.5" stroke-linecap="round" stroke-linejoin="round"/>
<path d="M16 20C18.2091 20 20 18.2091 20 16C20 13.7909 18.2091 12 16 12C13.7909 12 12 13.7909 12 16C12 18.2091 13.7909 20 16 20Z" stroke="#1A1A1A" stroke-width="1.5" stroke-linecap="round" stroke-linejoin="round"/>
</svg>
