<svg width="64" height="64" viewBox="0 0 64 64" fill="none" xmlns="http://www.w3.org/2000/svg">
<g filter="url(#filter0_d_599_2052)">
<path d="M6 28C6 13.6406 17.6406 2 32 2C46.3594 2 58 13.6406 58 28C58 42.3594 46.3594 54 32 54C17.6406 54 6 42.3594 6 28Z" fill="white"/>
<path d="M24 14.6667L20 20.0001V38.6667C20 39.374 20.281 40.0523 20.781 40.5524C21.2811 41.0525 21.9594 41.3334 22.6667 41.3334H41.3333C42.0406 41.3334 42.7189 41.0525 43.219 40.5524C43.719 40.0523 44 39.374 44 38.6667V20.0001L40 14.6667H24Z" stroke="#1A1A1A" stroke-width="1.5" stroke-linecap="round" stroke-linejoin="round"/>
<path d="M20 20H44" stroke="#1A1A1A" stroke-width="1.5" stroke-linecap="round" stroke-linejoin="round"/>
<path d="M37.3334 25.3333C37.3334 26.7477 36.7715 28.1043 35.7713 29.1045C34.7711 30.1047 33.4146 30.6666 32.0001 30.6666C30.5856 30.6666 29.229 30.1047 28.2288 29.1045C27.2287 28.1043 26.6667 26.7477 26.6667 25.3333" stroke="#1A1A1A" stroke-width="1.5" stroke-linecap="round" stroke-linejoin="round"/>
</g>
<defs>
<filter id="filter0_d_599_2052" x="0" y="0" width="64" height="64" filterUnits="userSpaceOnUse" color-interpolation-filters="sRGB">
<feFlood flood-opacity="0" result="BackgroundImageFix"/>
<feColorMatrix in="SourceAlpha" type="matrix" values="0 0 0 0 0 0 0 0 0 0 0 0 0 0 0 0 0 0 127 0" result="hardAlpha"/>
<feOffset dy="4"/>
<feGaussianBlur stdDeviation="3"/>
<feColorMatrix type="matrix" values="0 0 0 0 0 0 0 0 0 0 0 0 0 0 0 0 0 0 0.06 0"/>
<feBlend mode="normal" in2="BackgroundImageFix" result="effect1_dropShadow_599_2052"/>
<feBlend mode="normal" in="SourceGraphic" in2="effect1_dropShadow_599_2052" result="shape"/>
</filter>
</defs>
</svg>
