<svg width="18" height="18" viewBox="0 0 18 18" fill="none" xmlns="http://www.w3.org/2000/svg">
<path d="M13.9704 5.45153C13.9015 5.3821 13.8196 5.327 13.7293 5.28939C13.6391 5.25178 13.5422 5.23242 13.4445 5.23242C13.3467 5.23242 13.2498 5.25178 13.1596 5.28939C13.0693 5.327 12.9874 5.3821 12.9185 5.45153L7.40001 10.9775L5.08149 8.65153C5.00999 8.58247 4.92559 8.52816 4.83311 8.49171C4.74062 8.45526 4.64186 8.43739 4.54247 8.43911C4.44308 8.44083 4.34499 8.46211 4.25383 8.50173C4.16266 8.54136 4.08018 8.59855 4.01112 8.67005C3.94205 8.74155 3.88775 8.82595 3.8513 8.91843C3.81485 9.01092 3.79698 9.10968 3.7987 9.20907C3.80042 9.30846 3.8217 9.40655 3.86132 9.49771C3.90095 9.58888 3.95814 9.67136 4.02964 9.74042L6.87408 12.5849C6.94294 12.6543 7.02487 12.7094 7.11514 12.747C7.2054 12.7846 7.30222 12.804 7.40001 12.804C7.4978 12.804 7.59461 12.7846 7.68488 12.747C7.77515 12.7094 7.85707 12.6543 7.92593 12.5849L13.9704 6.54042C14.0456 6.47106 14.1056 6.38687 14.1466 6.29317C14.1877 6.19946 14.2088 6.09827 14.2088 5.99598C14.2088 5.89368 14.1877 5.79249 14.1466 5.69879C14.1056 5.60508 14.0456 5.5209 13.9704 5.45153V5.45153Z" fill="white"/>
</svg>
