<svg width="16" height="16" viewBox="0 0 16 16" fill="none" xmlns="http://www.w3.org/2000/svg">
<path d="M11.9763 5.16162C11.9212 5.10607 11.8557 5.06199 11.7835 5.0319C11.7112 5.00182 11.6338 4.98633 11.5556 4.98633C11.4773 4.98633 11.3999 5.00182 11.3277 5.0319C11.2555 5.06199 11.1899 5.10607 11.1348 5.16162L6.72001 9.58236L4.86519 7.72162C4.80799 7.66636 4.74047 7.62292 4.66648 7.59376C4.5925 7.5646 4.51349 7.5503 4.43398 7.55168C4.35446 7.55305 4.276 7.57008 4.20306 7.60178C4.13013 7.63348 4.06415 7.67923 4.0089 7.73643C3.95364 7.79363 3.9102 7.86115 3.88104 7.93514C3.85188 8.00913 3.83758 8.08813 3.83896 8.16765C3.84033 8.24716 3.85736 8.32563 3.88906 8.39856C3.92076 8.4715 3.96651 8.53747 4.02371 8.59273L6.29927 10.8683C6.35436 10.9238 6.4199 10.9679 6.49211 10.998C6.56432 11.0281 6.64178 11.0436 6.72001 11.0436C6.79824 11.0436 6.87569 11.0281 6.9479 10.998C7.02012 10.9679 7.08566 10.9238 7.14075 10.8683L11.9763 6.03273C12.0365 5.97724 12.0845 5.90989 12.1173 5.83492C12.1501 5.75996 12.1671 5.67901 12.1671 5.59717C12.1671 5.51533 12.1501 5.43438 12.1173 5.35942C12.0845 5.28446 12.0365 5.21711 11.9763 5.16162V5.16162Z" fill="white"/>
</svg>
