<svg width="62" height="62" viewBox="0 0 62 62" fill="none" xmlns="http://www.w3.org/2000/svg">
<path d="M60.2273 8.47538C59.3152 7.56173 57.8353 7.56015 56.9232 8.4715L28.8909 36.4299L18.7769 25.4451C17.903 24.4964 16.4254 24.4349 15.4752 25.3087C14.5257 26.1827 14.4649 27.661 15.3388 28.6105L27.1002 41.3836C27.5309 41.8517 28.1337 42.1236 28.7693 42.1368C28.7864 42.1375 28.8028 42.1375 28.8192 42.1375C29.4369 42.1375 30.0311 41.8922 30.4689 41.456L60.2227 11.7801C61.1371 10.8689 61.1386 9.38903 60.2273 8.47538Z" fill="#569587"/>
<path d="M59.6633 28.6633C58.3726 28.6633 57.3266 29.7093 57.3266 31C57.3266 45.5171 45.5171 57.3266 31 57.3266C16.4838 57.3266 4.67337 45.5171 4.67337 31C4.67337 16.4838 16.4838 4.67337 31 4.67337C32.2906 4.67337 33.3367 3.62736 33.3367 2.33675C33.3367 1.04601 32.2906 0 31 0C13.9064 0 0 13.9064 0 31C0 48.0929 13.9064 62 31 62C48.0929 62 62 48.0929 62 31C62 29.7094 60.954 28.6633 59.6633 28.6633Z" fill="#569587"/>
</svg>
