<svg width="40" height="40" viewBox="0 0 40 40" fill="none" xmlns="http://www.w3.org/2000/svg">
<path d="M37.3016 27.5135L32.8839 28.6255C32.5687 28.7049 32.3782 29.0238 32.4573 29.3393C32.5366 29.6546 32.8565 29.845 33.1711 29.7656C37.8018 28.6154 37.4835 28.656 37.6779 28.656C38.8095 28.656 39.2502 30.1337 38.313 30.7602C28.3991 35.7871 24.8801 37.5687 24.8456 37.5915C23.2458 38.6093 21.1935 38.6072 19.5968 37.5775C18.7015 37.0016 18.3679 36.9186 14.0518 34.7839C11.5845 33.577 9.736 33.544 8.17569 33.2123V25.8628H16.7746C17.2177 25.8628 17.634 26.0361 17.9477 26.3489L22.2672 30.6683C23.1134 31.5156 22.5495 32.9459 21.3668 32.9459C21.0156 32.9459 20.6845 32.8095 20.4361 32.5607L16.5448 28.6686C16.315 28.4387 15.9424 28.4387 15.7126 28.6686C15.4828 28.8983 15.4828 29.27 15.7126 29.4999L19.6048 33.3926C21.0022 34.7879 23.4247 34.0799 23.7995 32.1255L30.8896 30.3406C31.2048 30.2615 31.3955 29.9414 31.3162 29.6262C31.2372 29.3119 30.9171 29.1205 30.6027 29.1996L23.743 30.9265C23.627 30.5273 23.4122 30.1502 23.0985 29.8365L18.7796 25.5176C18.244 24.982 17.5321 24.6863 16.7746 24.6863H8.15738C7.995 23.201 6.73248 22.0413 5.20477 22.0413H2.9715C1.33332 22.0413 0 23.3743 0 25.0126V35.4474C0 37.0855 1.33332 38.418 2.9715 38.418H5.20477C6.84326 38.418 8.17569 37.0855 8.17569 35.4474V34.4062C9.59962 34.7089 11.2723 34.7339 13.5348 35.8405L18.0316 38.0408C19.0604 38.5437 20.0965 39.5285 22.2327 39.5285C23.3737 39.5285 24.4864 39.2078 25.452 38.6002C36.34 33.0783 38.8849 31.7899 38.9233 31.7664C39.5968 31.3373 40 30.6039 40 29.805C40 28.2319 38.4628 27.2226 37.3016 27.5135ZM6.99921 35.4474C6.99921 36.4371 6.19446 37.2419 5.20477 37.2419H2.9715C1.98182 37.2419 1.17645 36.4371 1.17645 35.4474V25.0126C1.17645 24.0229 1.98182 23.2175 2.9715 23.2175H5.20477C6.08307 23.2175 6.81579 23.8519 6.9693 24.6863C7.01965 24.957 6.99921 35.4379 6.99921 35.4474Z" fill="#1A1A1A"/>
<path d="M4.87683 32.2412C4.57806 32.1127 4.2323 32.2506 4.10412 32.5491C3.97564 32.8473 4.11358 33.1933 4.41204 33.3218C5.23083 33.6739 4.97326 34.8974 4.08825 34.8974C3.53436 34.8974 3.13733 34.3566 3.30547 33.8278C3.40374 33.518 3.23223 33.1876 2.92279 33.0893C2.61333 32.991 2.28253 33.1622 2.18426 33.4719C1.77502 34.761 2.74303 36.0739 4.08825 36.0739C5.18933 36.0739 6.08532 35.1779 6.08532 34.0765C6.08532 33.2773 5.61077 32.5567 4.87683 32.2412Z" fill="#1A1A1A"/>
<path d="M18.663 8.38478C21.933 3.10678 29.2114 2.32553 33.5504 6.55679C37.4243 10.3349 37.4243 16.5473 33.5489 20.3254C31.8967 21.9361 29.729 22.9017 27.4447 23.0452C27.1201 23.0656 26.8737 23.3445 26.8942 23.6686C26.9147 23.9942 27.1954 24.2393 27.5174 24.2192C30.0827 24.0583 32.5161 22.9746 34.3701 21.1677C38.7179 16.9285 38.721 9.95586 34.3716 5.71542C29.4943 0.955599 21.3235 1.85159 17.663 7.76532C17.399 8.19132 16.7297 8.00271 16.7297 7.4946C16.7297 7.40457 16.7547 7.31912 16.8036 7.23978C20.8313 0.742583 29.819 -0.26114 35.1819 5.09988C39.3222 9.24171 39.6875 15.6336 36.5228 20.1786C36.337 20.4453 36.4029 20.8125 36.6693 20.9974C36.936 21.1832 37.3031 21.1173 37.4881 20.8509C40.9695 15.8522 40.5685 8.8224 36.0128 4.26858C30.1184 -1.62619 20.2249 -0.525727 15.8035 6.62118C15.6405 6.88547 15.5536 7.18728 15.5536 7.4946C15.5536 9.19263 17.7811 9.80901 18.663 8.38478Z" fill="#1A1A1A"/>
<path d="M22.5894 17.0581V18.1985C21.908 18.3725 21.403 18.9929 21.403 19.7278C21.403 20.5982 22.1113 21.3065 22.9816 21.3065H30.7322C31.6034 21.3065 32.3114 20.5982 32.3114 19.7278C32.3114 18.9929 31.8063 18.3725 31.1249 18.1985V17.0581C31.1249 15.5932 30.38 14.2508 29.1565 13.4665C30.38 12.6831 31.1249 11.3397 31.1249 9.87485V8.73446C31.8063 8.56046 32.3114 7.94008 32.3114 7.2052C32.3114 6.33484 31.6034 5.62653 30.7322 5.62653H22.9816C22.1113 5.62653 21.403 6.33484 21.403 7.2052C21.403 7.94008 21.908 8.56046 22.5894 8.73446V9.87485C22.5894 11.3397 23.3338 12.6831 24.5572 13.4665C23.3338 14.2498 22.5894 15.5926 22.5894 17.0581ZM30.7322 20.13H22.9816C22.84 20.13 22.7295 20.0602 22.6606 19.96C22.4756 19.6915 22.6899 19.3246 23.0158 19.3246H30.7322C31.2232 19.3246 31.2857 20.13 30.7322 20.13ZM25.3052 18.1482C26.626 17.164 27.2345 17.1765 28.5401 18.1482H25.3052ZM22.7378 7.52289C22.4265 7.28303 22.6108 6.80298 22.9816 6.80298H30.7322C30.951 6.80298 31.1353 6.98731 31.1353 7.2052C31.1353 7.42706 30.9479 7.60834 30.7322 7.60834C22.6224 7.57538 22.9465 7.68616 22.7378 7.52289ZM23.7665 9.94077C23.765 9.90231 23.7659 9.87339 23.7659 8.78477H29.9487C29.9487 9.87339 29.9493 9.90231 29.9479 9.94077H23.7665ZM24.0271 11.1169H29.6876C29.6686 11.1468 29.3103 12.0675 28.3267 12.5906L26.8518 13.3771C25.8112 12.713 24.6488 12.5332 24.0271 11.1169ZM25.444 14.3112C25.601 14.2304 25.6723 14.1418 25.7138 14.1034L26.2854 14.4082V14.769C26.2854 15.0937 26.5491 15.3574 26.8738 15.3574C27.1985 15.3574 27.4619 15.0937 27.4619 14.769V14.3848L27.9975 14.0995C28.0735 14.1855 28.1663 14.2578 28.2696 14.3112C29.3054 14.8483 29.9487 15.9008 29.9487 17.0581V17.7899C29.4883 17.3663 28.8797 16.8921 28.1574 16.5314C27.3646 16.1352 26.4258 16.1432 25.6458 16.5509C25.0793 16.8472 24.379 17.2998 23.7659 17.9452V17.0581C23.7659 15.9008 24.4089 14.8483 25.444 14.3112Z" fill="#1A1A1A"/>
<path d="M12.6481 17.1286H14.3961C17.1973 26.528 28.9533 29.5014 35.8964 22.7283C36.1292 22.5006 36.1338 22.1283 35.9064 21.8961C35.6797 21.6638 35.3074 21.6586 35.0751 21.886C28.8355 27.9731 18.3579 25.3955 15.6302 17.1286H16.6916C17.9541 20.6012 21.0648 23.4137 25.0388 24.0882C25.3586 24.1422 25.6629 23.9264 25.7169 23.6066C25.7712 23.2865 25.5554 22.9822 25.2356 22.9282C21.8204 22.3492 19.1464 19.9982 17.9551 17.1286H19.3851C19.8361 17.1286 20.1209 16.6391 19.8944 16.2464L16.5259 10.412C16.2998 10.0208 15.7334 10.0202 15.5072 10.412L12.1387 16.2464C11.9132 16.6373 12.1948 17.1286 12.6481 17.1286ZM16.0166 11.8826L18.3661 15.9525H13.6668L16.0166 11.8826Z" fill="#1A1A1A"/>
</svg>
