<svg width="20" height="20" viewBox="0 0 20 20" fill="none" xmlns="http://www.w3.org/2000/svg">
<path d="M2.5 4.16797H4.16667H17.5" stroke="#828282" stroke-width="1.5" stroke-linecap="round" stroke-linejoin="round"/>
<path d="M6.66675 4.16537V2.4987C6.66675 2.05667 6.84234 1.63275 7.1549 1.32019C7.46746 1.00763 7.89139 0.832031 8.33342 0.832031H11.6667C12.1088 0.832031 12.5327 1.00763 12.8453 1.32019C13.1578 1.63275 13.3334 2.05667 13.3334 2.4987V4.16537M15.8334 4.16537V15.832C15.8334 16.2741 15.6578 16.698 15.3453 17.0105C15.0327 17.3231 14.6088 17.4987 14.1667 17.4987H5.83341C5.39139 17.4987 4.96746 17.3231 4.6549 17.0105C4.34234 16.698 4.16675 16.2741 4.16675 15.832V4.16537H15.8334Z" stroke="#828282" stroke-width="1.5" stroke-linecap="round" stroke-linejoin="round"/>
</svg>
