<svg width="40" height="26" viewBox="0 0 40 26" fill="none" xmlns="http://www.w3.org/2000/svg">
<path d="M0 3.25C0 1.45507 1.49238 0 3.33333 0H36.6667C38.5076 0 40 1.45507 40 3.25V22.75C40 24.5449 38.5076 26 36.6667 26H3.33333C1.49238 26 0 24.5449 0 22.75V3.25Z" fill="#301403"/>
<path d="M23.8171 12.9856C23.8201 12.287 23.5515 11.5875 23.0109 11.0604C22.4691 10.5321 21.7499 10.2704 21.0319 10.2746C21.0285 10.2746 21.0252 10.2744 21.0216 10.2744C19.4627 10.2744 18.2261 11.4798 18.2261 13.0002C18.2261 14.5056 19.4779 15.7258 21.0216 15.7258C22.581 15.7258 23.8174 14.5202 23.8174 13.0002C23.8174 12.9952 23.8171 12.9905 23.8171 12.9856Z" fill="#F26E21"/>
<path d="M17.7063 14.1532C17.2884 14.5611 16.9028 14.7204 16.4874 14.729C15.4754 14.7202 14.7314 13.9895 14.7314 12.9477C14.7314 12.4233 14.9351 11.9935 15.2577 11.6264C15.5602 11.3463 15.9499 11.1654 16.3981 11.1654C16.8819 11.1654 17.2584 11.3226 17.6882 11.742V10.5364C17.2585 10.3268 16.8818 10.2219 16.3981 10.2219C15.7147 10.2696 15.0703 10.5388 14.576 10.9615C14.4336 11.0865 14.2971 11.2245 14.1813 11.3824C13.8203 11.8386 13.6021 12.3973 13.6021 13.0003C13.6021 14.5203 14.839 15.6734 16.398 15.6734C16.4056 15.6734 16.4131 15.6728 16.4205 15.6727C16.431 15.6729 16.4413 15.6734 16.4517 15.6734C16.8817 15.6734 17.2584 15.5688 17.7422 15.3591L17.7063 14.1532C17.6881 14.1709 17.7243 14.1874 17.7063 14.2041V14.1532Z" fill="white"/>
<path d="M27.3468 10.9727L26.1293 13.8913L24.7314 10.4314H23.6025L25.8067 15.7257H26.3981L28.7099 10.4314H27.581L27.3468 10.9727Z" fill="white"/>
<path d="M29.1401 12.7379V15.5687H32.0435H32.097V14.7297H31.1831H30.2154V13.7864V13.3148H32.0435V12.4234H30.2154V11.3227H32.097V10.4314H29.1401V12.7379Z" fill="white"/>
<path d="M4.83914 10.4314H3.3335V15.5687H4.83907C5.64539 15.5687 6.23669 15.3589 6.72056 14.9919C7.31186 14.5202 7.68836 13.7865 7.68836 13.0003C7.68843 11.4798 6.55922 10.4314 4.83914 10.4314ZM6.07557 14.3107C5.75297 14.5726 5.32286 14.7297 4.67766 14.7297H4.35506V11.3226H4.62383C5.26903 11.3226 5.69914 11.4274 6.02182 11.7418C6.3981 12.0561 6.61327 12.5282 6.61327 13.0001C6.66702 13.4719 6.452 13.9958 6.07557 14.3107Z" fill="white"/>
<path d="M9.19385 10.4309H8.17236V15.5681H9.19385V10.4309Z" fill="white"/>
<path d="M11.7742 12.4232C11.1292 12.2136 10.9677 12.0562 10.9677 11.7942C10.9677 11.4797 11.2903 11.2176 11.7204 11.2176C12.043 11.2176 12.3118 11.3225 12.5806 11.6371L13.1184 10.9557C12.6881 10.5886 12.1507 10.3792 11.5593 10.3792C10.6451 10.3792 9.89238 11.0082 9.89238 11.8467C9.89238 12.5807 10.2153 12.8952 11.1829 13.2621C11.613 13.4191 11.7743 13.4717 11.882 13.5766C12.0967 13.6812 12.2044 13.8911 12.2044 14.1005C12.2044 14.52 11.882 14.8346 11.3979 14.8346C10.9136 14.8346 10.4838 14.5725 10.2687 14.1531L9.62354 14.7822C10.1076 15.4636 10.699 15.778 11.4517 15.778C12.5269 15.778 13.2792 15.0966 13.2792 14.1005C13.2794 13.2096 12.9571 12.8427 11.7742 12.4232Z" fill="white"/>
<path d="M35.0004 13.4192C35.8065 13.2622 36.2368 12.7378 36.2368 11.9517C36.2368 11.0083 35.5378 10.4314 34.3552 10.4314H32.7959V15.5687H33.8174V13.5241H33.9789L35.4301 15.5687H36.6668L35.0004 13.4192ZM34.1398 12.7902H33.8175V11.2178H34.1398C34.785 11.2178 35.1615 11.4798 35.1615 12.0043C35.1615 12.5283 34.7851 12.7902 34.1398 12.7902Z" fill="white"/>
</svg>
