<svg width="40" height="40" viewBox="0 0 40 40" fill="none" xmlns="http://www.w3.org/2000/svg">
<path d="M38.1759 5.60111C37.6342 3.89731 36.8999 2.67737 36.8688 2.6261C36.7484 2.42766 36.5005 2.32444 36.276 2.37594C36.2178 2.38921 34.8313 2.71285 33.2318 3.51165C31.0726 4.58968 29.5642 6.02889 28.8694 7.67295C28.291 9.04212 28.2079 10.7159 28.6183 12.5651C27.7442 11.5889 26.7609 10.7349 25.689 10.016C25.3617 9.36942 24.4963 7.77755 23.1434 6.11381C22.6978 5.56609 21.8406 6.25343 22.2908 6.80663C23.2025 7.92793 23.8887 9.03068 24.3178 9.78828L19.3138 8.81278L14.5594 2.32787C15.0211 2.33428 15.4843 2.37891 15.9453 2.46932C17.4067 2.75542 18.8503 3.49975 20.2366 4.68124C20.7798 5.14426 21.4852 4.30152 20.9491 3.8449C19.4177 2.53982 17.8052 1.71401 16.1563 1.39106C13.6393 0.898504 10.7037 1.5451 7.66596 3.26171C5.40186 4.54116 3.88781 5.94649 3.82464 6.00555C3.62208 6.19483 3.5898 6.53861 3.7594 6.75971C3.98142 7.21519 4.82279 8.85833 6.22332 10.6274C7.0489 11.6704 7.91956 12.563 8.82021 13.2966C8.56432 13.511 8.3153 13.7353 8.07429 13.9713C6.78706 15.2304 5.80149 16.7156 5.15444 18.3393C4.58246 19.7739 4.27485 21.3173 4.25768 22.908C4.2293 25.5093 4.98301 28.018 6.43778 30.1636C7.85891 32.2592 9.8456 33.8683 12.1829 34.8165C12.8371 35.0813 13.2507 34.0639 12.5961 33.7984C11.7492 33.4549 10.9536 33.0148 10.2198 32.4913C10.3137 31.9708 10.5313 30.0977 9.28713 28.1586C9.11295 27.8873 9.63366 26.8221 9.94448 26.1858C10.2654 25.5301 10.5966 24.8521 10.7513 24.2138C10.9156 23.5356 10.7307 22.9664 10.2169 22.567C9.83965 22.2738 9.34596 22.122 8.91085 21.9881C8.62818 21.9012 8.30775 21.8027 8.19331 21.7073C7.95756 21.5098 7.57258 20.7799 7.26313 20.1937C6.91981 19.5435 6.59296 18.9246 6.25925 18.5435C7.01022 16.76 8.21642 15.1819 9.72704 13.9745C11.107 14.9145 12.6819 15.5632 14.356 15.6946C12.4146 17.1988 11.7865 19.1198 12.6842 20.965C13.7325 23.1197 15.8901 22.7755 17.7938 22.4722C18.1231 22.4196 18.4639 22.3653 18.7903 22.3246C18.9128 22.3093 18.9496 22.3427 18.9743 22.3644C19.3911 22.7352 19.3788 24.5061 19.3698 25.7993C19.3577 27.588 19.3463 29.2776 20.0125 30.145C20.3524 30.5872 20.831 30.8134 21.392 30.8134C21.7282 30.8134 22.0935 30.7323 22.4767 30.568C24.1336 29.8585 25.8559 27.723 25.5931 26.0334C25.3636 24.5562 25.2116 23.5802 25.5698 22.7936C25.901 22.0655 26.7016 21.3914 28.2784 20.5313C28.4672 21.3816 28.5624 22.2662 28.5526 23.1738C28.5189 26.2714 27.2807 29.1707 25.0663 31.3371C22.5914 33.7582 19.113 34.9538 15.6723 34.5746C14.9712 34.4986 14.8501 35.5895 15.5521 35.6668C19.3183 36.0815 23.1263 34.7723 25.8344 32.1226C28.2589 29.7507 29.6144 26.577 29.6512 23.1854C29.7002 18.6886 27.3928 14.7047 23.8804 12.4097C24.6062 11.8922 25.1468 11.4447 25.4467 11.1849C26.7272 12.1036 27.8632 13.2355 28.8082 14.5541C31.0769 17.7202 31.9767 21.5798 31.3422 25.4227C30.0318 33.3556 22.5124 38.7441 14.5782 37.4333C10.735 36.7986 7.36933 34.7057 5.10065 31.5396C2.83175 28.3737 1.93201 24.5136 2.5667 20.6709C2.68068 19.9795 1.59739 19.798 1.48294 20.4919C0.80019 24.6244 1.76813 28.7752 4.20733 32.1798C6.64698 35.584 10.2667 37.8348 14.3992 38.5175C15.2635 38.6601 16.1286 38.7306 16.9879 38.7306C20.2357 38.7306 23.3952 37.7222 26.0875 35.7929C29.4926 33.3533 31.7437 29.7342 32.426 25.6017C32.9261 22.5736 32.539 19.5357 31.3369 16.7886C31.8917 16.625 32.8359 16.3073 33.87 15.7909C36.0288 14.7129 37.5373 13.2737 38.232 11.6296C38.9273 9.98512 38.9079 7.90046 38.1759 5.60111ZM6.2913 20.7064C6.70008 21.4814 7.08666 22.2138 7.48835 22.5498C7.77285 22.7876 8.16882 22.9094 8.5879 23.0383C9.66158 23.3683 9.78632 23.5303 9.68333 23.9549C9.55698 24.477 9.25211 25.1005 8.95754 25.7031C8.39014 26.864 7.85433 27.9599 8.36222 28.7518C9.08251 29.8743 9.20588 30.9793 9.19352 31.6666C5.92142 28.7161 4.5891 24.0559 5.8079 19.8202C5.96949 20.0971 6.13932 20.4189 6.2913 20.7064ZM32.8702 9.91073L31.309 6.12731C32.0687 5.41686 32.9501 4.88219 33.7008 4.50568C34.3403 4.18479 34.9487 3.94492 35.4367 3.77486L32.8702 9.91073ZM36.4495 4.20081C36.6676 4.66956 36.9205 5.27404 37.1366 5.95725C37.3735 6.70707 37.5909 7.63633 37.6342 8.60564L33.9755 10.1151L36.4495 4.20081ZM29.8812 8.10073C30.0433 7.71758 30.2527 7.36236 30.4946 7.03437L32.2719 11.3408L30.6771 15.1544C30.453 14.679 30.1891 14.0546 29.9652 13.3453C29.5159 11.9251 29.1369 9.86198 29.8812 8.10073ZM33.4008 14.7969C32.7853 15.1059 32.198 15.3398 31.7196 15.5085L33.3747 11.5518L37.5875 9.81345C37.5264 10.2854 37.4099 10.7532 37.2201 11.2019C36.476 12.9631 34.7324 14.1293 33.4008 14.7969ZM13.5917 14.4842C13.3976 14.4463 13.206 14.3998 13.0172 14.3469L19.0972 9.89013L24.1036 10.8659C22.2798 12.3028 17.8416 15.3169 13.5917 14.4842ZM8.03515 11.0471C6.73487 9.64568 5.78181 8.14719 5.23455 7.18772L11.6055 8.42986L8.03515 11.0471ZM9.16033 3.71764L11.8259 7.35343L5.41376 6.10351C6.22103 5.46607 7.55358 4.50912 9.16033 3.71764ZM13.4152 7.66334L10.1837 3.2553C11.1511 2.85773 12.1896 2.54485 13.2541 2.40569L17.7246 8.50311L13.4152 7.66334ZM13.0733 8.71597L17.6297 9.60403L11.7819 13.8903C10.6792 13.381 9.68676 12.6488 8.81838 11.8349L13.0733 8.71597ZM27.9799 19.4437C25.9994 20.4988 25.0296 21.3276 24.5696 22.3386C24.0754 23.4241 24.2565 24.5894 24.5071 26.2021C24.6552 27.1531 23.525 28.924 22.0441 29.5582C21.4962 29.7928 21.1059 29.7651 20.8837 29.4756C20.4472 28.9075 20.4591 27.1881 20.4685 25.8068C20.4815 23.8956 20.493 22.2452 19.7045 21.5437C19.4209 21.2914 19.0581 21.1848 18.655 21.2342C18.3097 21.2772 17.9592 21.3331 17.6207 21.3871C15.6013 21.7089 14.3305 21.8378 13.6723 20.4844C12.6057 18.2924 14.7647 16.6687 15.7425 16.0725C15.9416 15.9512 16.1264 15.8081 16.298 15.6488C18.6612 15.3664 20.8942 14.3524 22.8841 13.0823C25.27 14.5078 27.1015 16.7637 27.9799 19.4437Z" fill="#1A1A1A"/>
</svg>
