<svg width="88" height="40" viewBox="0 0 88 40" fill="none" xmlns="http://www.w3.org/2000/svg">
<path d="M7.98812 11.8989V27.5268C9.1225 27.5268 10.093 27.5011 10.8994 27.4497C11.706 27.3984 12.7648 27.3043 14.0765 27.1674C14.0411 27.3557 14.01 27.5522 13.9834 27.7576C13.9569 27.9629 13.9435 28.1339 13.9435 28.2708C13.9435 28.3907 13.9613 28.5703 13.9968 28.8097C14.0322 29.0493 14.0589 29.2373 14.0765 29.3742H4V11.8988C4.30149 11.8988 4.69138 11.9202 5.16983 11.963C5.64846 12.0057 5.92314 12.0272 5.99406 12.0272C6.29555 12.0272 6.5436 12.0185 6.73855 12.0014C7.50068 11.933 7.9172 11.8988 7.98812 11.8988V11.8989ZM23.0097 25.2684V22.7793C22.4779 22.9675 22.0524 23.1129 21.7336 23.2156C21.1486 23.4209 20.6968 23.6474 20.3777 23.8955C20.0585 24.1438 19.8371 24.4387 19.7129 24.7809C19.5889 25.123 19.5268 25.5337 19.5268 26.0127C19.5268 26.5944 19.6376 27.0819 19.859 27.4754C20.0806 27.8688 20.4572 28.0656 20.989 28.0656C21.7335 28.0656 22.274 27.7661 22.6108 27.1674C22.8767 26.6884 23.0095 26.0555 23.0095 25.2684H23.0097ZM26.6787 20.2645V27.2444C26.6787 27.7233 26.7716 28.0441 26.9579 28.2066C27.144 28.3692 27.5029 28.4504 28.0346 28.4504V29.0406C27.6978 29.1947 27.2945 29.3486 26.8249 29.5026C26.3553 29.6565 25.9608 29.7335 25.6418 29.7335C25.0392 29.7335 24.5031 29.5668 24.0333 29.2332C23.5636 28.8996 23.2223 28.4419 23.0097 27.8602C22.6552 28.4589 22.1766 28.9209 21.574 29.246C20.9713 29.571 20.3156 29.7335 19.6065 29.7335C18.4722 29.7335 17.5682 29.4512 16.8946 28.8867C16.168 28.2708 15.8047 27.424 15.8047 26.3461C15.8047 25.183 16.1946 24.319 16.9745 23.7543C17.6125 23.2925 18.8444 22.8476 20.67 22.42C21.0775 22.3174 21.4055 22.2317 21.6537 22.1633C22.0436 22.0436 22.3627 21.9067 22.611 21.7527C22.7528 21.6158 22.8548 21.4704 22.9169 21.3166C22.9788 21.1626 23.0098 20.9746 23.0098 20.752C23.0098 20.1533 22.7484 19.6273 22.2255 19.1739C21.7027 18.7206 21.1222 18.4938 20.4842 18.4938C19.7219 18.4938 18.9864 18.6991 18.2774 19.1097C17.6926 19.4518 17.3468 19.7768 17.2406 20.0847H17.0545L16.7089 18.4936C17.3115 17.9634 18.0604 17.5527 18.9555 17.2618C19.8507 16.971 20.7413 16.8258 21.6276 16.8258C22.9569 16.8258 24.0735 17.0738 24.9774 17.5699C26.1118 18.1858 26.679 19.084 26.679 20.2643L26.6787 20.2645ZM61.6405 23.3695C61.6405 24.8067 61.729 25.8671 61.9063 26.5515C62.2608 27.903 62.952 28.5788 63.9801 28.5788C64.7956 28.5788 65.4203 28.1083 65.8544 27.1674C66.2888 26.2264 66.5059 24.9347 66.5059 23.2925C66.5059 21.9581 66.4084 20.966 66.2133 20.3159C65.859 19.1013 65.1676 18.494 64.1395 18.494C63.1116 18.494 62.4026 19.1013 62.0126 20.3159C61.7643 21.0687 61.6405 22.0865 61.6405 23.3695ZM57.9715 29.3743V10C58.273 10.0342 58.614 10.0642 58.9951 10.0899C59.376 10.1154 59.6464 10.1284 59.8059 10.1284C60.1958 10.1284 60.5504 10.1112 60.8694 10.077C61.1885 10.0427 61.4454 10.0172 61.6405 10V18.8531C61.9949 18.2202 62.4868 17.7241 63.1161 17.3647C63.7452 17.0056 64.441 16.8259 65.2031 16.8259C66.8515 16.8259 68.1632 17.4503 69.1379 18.6991C70.0064 19.8111 70.4408 21.1968 70.4408 22.8561C70.4408 23.7973 70.3344 24.6524 70.1217 25.4224C69.8556 26.3633 69.4569 27.133 68.9252 27.7317C67.7555 29.0662 66.2577 29.7333 64.4321 29.7333C63.6876 29.7333 62.9919 29.5836 62.3449 29.28C61.698 28.9763 61.1797 28.5359 60.7896 27.9628C60.3465 28.1981 59.9476 28.4332 59.5931 28.6686C59.2389 28.9037 58.8753 29.1389 58.5032 29.3742H57.9715V29.3743ZM33.5648 23.3695C33.5648 24.8067 33.6534 25.8671 33.8307 26.5515C34.1851 27.903 34.8763 28.5788 35.9045 28.5788C36.7199 28.5788 37.3446 28.1083 37.7788 27.1674C38.2131 26.2264 38.4303 24.9347 38.4303 23.2925C38.4303 21.9581 38.3327 20.966 38.1376 20.3159C37.7833 19.1013 37.092 18.494 36.0638 18.494C35.036 18.494 34.3269 19.1013 33.9369 20.3159C33.6887 21.0687 33.5648 22.0865 33.5648 23.3695ZM29.8958 29.3743V10C30.1973 10.0342 30.5383 10.0642 30.9194 10.0899C31.3003 10.1154 31.5708 10.1284 31.7302 10.1284C32.1201 10.1284 32.4747 10.1112 32.7937 10.077C33.1128 10.0427 33.3697 10.0172 33.5648 10V18.8531C33.9192 18.2202 34.4111 17.7241 35.0404 17.3647C35.6695 17.0056 36.3653 16.8259 37.1274 16.8259C38.7759 16.8259 40.0875 17.4503 41.0623 18.6991C41.9308 19.8111 42.3651 21.1968 42.3651 22.8561C42.3651 23.7973 42.2587 24.6524 42.046 25.4224C41.7799 26.3633 41.3812 27.133 40.8495 27.7317C39.6798 29.0662 38.182 29.7333 36.3565 29.7333C35.612 29.7333 34.9162 29.5836 34.2693 29.28C33.6223 28.9763 33.104 28.5359 32.7139 27.9628C32.2708 28.1981 31.8719 28.4332 31.5175 28.6686C31.1632 28.9037 30.7996 29.1389 30.4276 29.3742H29.8958V29.3743ZM55.9243 23.2927H48.0546C48.0546 24.7298 48.3561 25.8588 48.9588 26.68C49.6323 27.604 50.6513 28.0658 52.0161 28.0658C52.5657 28.0658 53.1062 27.9631 53.6381 27.7577C54.1697 27.5524 54.6659 27.2702 55.1269 26.9109L55.4194 27.1418L54.8612 28.579C53.7268 29.3488 52.4596 29.7336 51.0592 29.7336C48.8614 29.7336 47.1554 29.1392 45.9413 27.9503C44.7272 26.7613 44.1203 25.106 44.1203 22.9848C44.1203 21.1372 44.6785 19.6488 45.795 18.5198C46.9118 17.3907 48.4272 16.8262 50.3414 16.8262C52.3088 16.8262 53.7623 17.4421 54.7016 18.6738C55.517 19.7514 55.9245 21.2913 55.9245 23.2929L55.9243 23.2927ZM48.0546 22.0609H52.2555C52.2555 21.0689 52.1403 20.2134 51.9099 19.4948C51.5733 18.4684 51.059 17.955 50.3678 17.955C49.517 17.955 48.8879 18.4682 48.4801 19.4948C48.1965 20.2134 48.0548 21.0689 48.0548 22.0609H48.0546ZM84.0002 23.2927H76.1305C76.1305 24.7298 76.432 25.8588 77.0346 26.68C77.7082 27.604 78.7272 28.0658 80.092 28.0658C80.6415 28.0658 81.182 27.9631 81.7139 27.7577C82.2455 27.5524 82.7418 27.2702 83.2027 26.9109L83.4953 27.1418L82.937 28.579C81.8027 29.3488 80.5355 29.7336 79.135 29.7336C76.9372 29.7336 75.2313 29.1392 74.0171 27.9503C72.803 26.7613 72.1961 25.106 72.1961 22.9848C72.1961 21.1372 72.7543 19.6488 73.8709 18.5198C74.9876 17.3907 76.5031 16.8262 78.4172 16.8262C80.3846 16.8262 81.8381 17.4421 82.7774 18.6738C83.5928 19.7514 84.0003 21.2913 84.0003 23.2929L84.0002 23.2927ZM76.1305 22.0609H80.3314C80.3314 21.0689 80.2162 20.2134 79.9857 19.4948C79.6491 18.4684 79.1349 17.955 78.4437 17.955C77.5928 17.955 76.9637 18.4682 76.556 19.4948C76.2723 20.2134 76.1306 21.0689 76.1306 22.0609H76.1305Z" fill="#1A1A1A"/>
</svg>
