<svg width="64" height="64" viewBox="0 0 64 64" fill="none" xmlns="http://www.w3.org/2000/svg">
<g filter="url(#filter0_d_599_2051)">
<path d="M6 28C6 13.6406 17.6406 2 32 2C46.3594 2 58 13.6406 58 28C58 42.3594 46.3594 54 32 54C17.6406 54 6 42.3594 6 28Z" fill="white"/>
<path d="M43.2562 18.6769L43.2565 18.6771C43.8681 19.2885 44.3533 20.0144 44.6843 20.8133L45.3772 20.5262L44.6843 20.8133C45.0154 21.6122 45.1858 22.4685 45.1858 23.3333C45.1858 24.1981 45.0154 25.0544 44.6843 25.8534C44.3533 26.6523 43.8681 27.3782 43.2565 27.9895L43.2563 27.9897L41.843 29.403L32 39.246L22.157 29.403L20.7437 27.9897C19.5087 26.7547 18.8149 25.0798 18.8149 23.3333C18.8149 21.5869 19.5087 19.9119 20.7437 18.677C21.9786 17.4421 23.6535 16.7483 25.4 16.7483C27.1465 16.7483 28.8214 17.4421 30.0563 18.677L31.4697 20.0903C31.7626 20.3832 32.2374 20.3832 32.5303 20.0903L33.9437 18.677L33.9438 18.6769C34.5551 18.0652 35.281 17.58 36.0799 17.249C36.8789 16.9179 37.7352 16.7476 38.6 16.7476C39.4648 16.7476 40.3211 16.9179 41.12 17.249C41.919 17.58 42.6448 18.0652 43.2562 18.6769Z" stroke="#1A1A1A" stroke-width="1.5" stroke-linecap="round" stroke-linejoin="round"/>
</g>
<defs>
<filter id="filter0_d_599_2051" x="0" y="0" width="64" height="64" filterUnits="userSpaceOnUse" color-interpolation-filters="sRGB">
<feFlood flood-opacity="0" result="BackgroundImageFix"/>
<feColorMatrix in="SourceAlpha" type="matrix" values="0 0 0 0 0 0 0 0 0 0 0 0 0 0 0 0 0 0 127 0" result="hardAlpha"/>
<feOffset dy="4"/>
<feGaussianBlur stdDeviation="3"/>
<feColorMatrix type="matrix" values="0 0 0 0 0 0 0 0 0 0 0 0 0 0 0 0 0 0 0.06 0"/>
<feBlend mode="normal" in2="BackgroundImageFix" result="effect1_dropShadow_599_2051"/>
<feBlend mode="normal" in="SourceGraphic" in2="effect1_dropShadow_599_2051" result="shape"/>
</filter>
</defs>
</svg>
