<svg width="15" height="18" viewBox="0 0 15 18" fill="none" xmlns="http://www.w3.org/2000/svg">
<path d="M1.16634 9.00008C0.945327 9.00008 0.733366 9.08788 0.577086 9.24416C0.420805 9.40044 0.333008 9.6124 0.333008 9.83342V16.5001C0.333008 16.7211 0.420805 16.9331 0.577086 17.0893C0.733366 17.2456 0.945327 17.3334 1.16634 17.3334C1.38735 17.3334 1.59932 17.2456 1.7556 17.0893C1.91188 16.9331 1.99967 16.7211 1.99967 16.5001V9.83342C1.99967 9.6124 1.91188 9.40044 1.7556 9.24416C1.59932 9.08788 1.38735 9.00008 1.16634 9.00008ZM5.33301 0.666748C5.11199 0.666748 4.90003 0.754545 4.74375 0.910826C4.58747 1.06711 4.49967 1.27907 4.49967 1.50008V16.5001C4.49967 16.7211 4.58747 16.9331 4.74375 17.0893C4.90003 17.2456 5.11199 17.3334 5.33301 17.3334C5.55402 17.3334 5.76598 17.2456 5.92226 17.0893C6.07854 16.9331 6.16634 16.7211 6.16634 16.5001V1.50008C6.16634 1.27907 6.07854 1.06711 5.92226 0.910826C5.76598 0.754545 5.55402 0.666748 5.33301 0.666748ZM13.6663 12.3334C13.4453 12.3334 13.2334 12.4212 13.0771 12.5775C12.9208 12.7338 12.833 12.9457 12.833 13.1667V16.5001C12.833 16.7211 12.9208 16.9331 13.0771 17.0893C13.2334 17.2456 13.4453 17.3334 13.6663 17.3334C13.8874 17.3334 14.0993 17.2456 14.2556 17.0893C14.4119 16.9331 14.4997 16.7211 14.4997 16.5001V13.1667C14.4997 12.9457 14.4119 12.7338 14.2556 12.5775C14.0993 12.4212 13.8874 12.3334 13.6663 12.3334ZM9.49967 5.66675C9.27866 5.66675 9.0667 5.75455 8.91042 5.91083C8.75414 6.06711 8.66634 6.27907 8.66634 6.50008V16.5001C8.66634 16.7211 8.75414 16.9331 8.91042 17.0893C9.0667 17.2456 9.27866 17.3334 9.49967 17.3334C9.72069 17.3334 9.93265 17.2456 10.0889 17.0893C10.2452 16.9331 10.333 16.7211 10.333 16.5001V6.50008C10.333 6.27907 10.2452 6.06711 10.0889 5.91083C9.93265 5.75455 9.72069 5.66675 9.49967 5.66675Z" fill="#569587" fill-opacity="0.9"/>
</svg>
