<svg width="20" height="20" viewBox="0 0 20 20" fill="none" xmlns="http://www.w3.org/2000/svg">
<path d="M4.16667 10.0001C3.94566 10.0001 3.73369 10.0879 3.57741 10.2442C3.42113 10.4004 3.33334 10.6124 3.33334 10.8334V17.5001C3.33334 17.7211 3.42113 17.9331 3.57741 18.0893C3.73369 18.2456 3.94566 18.3334 4.16667 18.3334C4.38768 18.3334 4.59964 18.2456 4.75592 18.0893C4.9122 17.9331 5 17.7211 5 17.5001V10.8334C5 10.6124 4.9122 10.4004 4.75592 10.2442C4.59964 10.0879 4.38768 10.0001 4.16667 10.0001ZM8.33334 1.66675C8.11232 1.66675 7.90036 1.75455 7.74408 1.91083C7.5878 2.06711 7.5 2.27907 7.5 2.50008V17.5001C7.5 17.7211 7.5878 17.9331 7.74408 18.0893C7.90036 18.2456 8.11232 18.3334 8.33334 18.3334C8.55435 18.3334 8.76631 18.2456 8.92259 18.0893C9.07887 17.9331 9.16667 17.7211 9.16667 17.5001V2.50008C9.16667 2.27907 9.07887 2.06711 8.92259 1.91083C8.76631 1.75455 8.55435 1.66675 8.33334 1.66675ZM16.6667 13.3334C16.4457 13.3334 16.2337 13.4212 16.0774 13.5775C15.9211 13.7338 15.8333 13.9457 15.8333 14.1667V17.5001C15.8333 17.7211 15.9211 17.9331 16.0774 18.0893C16.2337 18.2456 16.4457 18.3334 16.6667 18.3334C16.8877 18.3334 17.0996 18.2456 17.2559 18.0893C17.4122 17.9331 17.5 17.7211 17.5 17.5001V14.1667C17.5 13.9457 17.4122 13.7338 17.2559 13.5775C17.0996 13.4212 16.8877 13.3334 16.6667 13.3334ZM12.5 6.66675C12.279 6.66675 12.067 6.75455 11.9107 6.91083C11.7545 7.06711 11.6667 7.27907 11.6667 7.50008V17.5001C11.6667 17.7211 11.7545 17.9331 11.9107 18.0893C12.067 18.2456 12.279 18.3334 12.5 18.3334C12.721 18.3334 12.933 18.2456 13.0893 18.0893C13.2455 17.9331 13.3333 17.7211 13.3333 17.5001V7.50008C13.3333 7.27907 13.2455 7.06711 13.0893 6.91083C12.933 6.75455 12.721 6.66675 12.5 6.66675Z" fill="#828282"/>
</svg>
