<svg width="104" height="36" viewBox="0 0 104 36" fill="none" xmlns="http://www.w3.org/2000/svg">
<path d="M41.2524 6.75892V20.268C42.1888 20.268 42.9898 20.2458 43.6556 20.2014C44.3213 20.1571 45.1956 20.0758 46.2783 19.9575C46.2492 20.1201 46.2235 20.2903 46.2015 20.4677C46.1797 20.6451 46.1687 20.793 46.1687 20.9113C46.1687 21.0148 46.1833 21.17 46.2125 21.3771C46.2418 21.5841 46.2637 21.7469 46.2783 21.8652H37.9602V6.75892C38.209 6.75892 38.5309 6.77744 38.9259 6.81434C39.3209 6.85137 39.5478 6.86977 39.6063 6.86977C39.8551 6.86977 40.0599 6.86261 40.2209 6.84767C40.85 6.78855 41.1939 6.75892 41.2524 6.75892ZM53.6526 18.316V16.1643C53.2137 16.327 52.8625 16.4528 52.5992 16.5414C52.1164 16.7189 51.7432 16.9149 51.4798 17.1293C51.2164 17.3437 51.0336 17.5987 50.9312 17.8945C50.8286 18.1903 50.7775 18.5451 50.7775 18.9594C50.7775 19.4621 50.869 19.8836 51.0519 20.2237C51.2347 20.5638 51.5456 20.7339 51.9846 20.7339C52.5992 20.7339 53.0454 20.4751 53.3233 19.9575C53.5429 19.5434 53.6526 18.9961 53.6526 18.316ZM56.6814 13.9904V20.0241C56.6814 20.4382 56.7582 20.7153 56.9118 20.8559C57.0654 20.9963 57.3618 21.0666 57.8007 21.0666V21.5767C57.5227 21.7099 57.1898 21.8429 56.802 21.976C56.4144 22.1092 56.0888 22.1757 55.8254 22.1757C55.328 22.1757 54.8853 22.0314 54.4976 21.7432C54.1098 21.4548 53.8281 21.0592 53.6526 20.5564C53.3601 21.074 52.965 21.4733 52.4674 21.7543C51.97 22.0351 51.4286 22.1757 50.8433 22.1757C49.9069 22.1757 49.1608 21.9317 48.6047 21.4436C48.0048 20.9113 47.7049 20.1792 47.7049 19.2477C47.7049 18.2421 48.0268 17.4952 48.6705 17.0072C49.1973 16.6079 50.2142 16.2234 51.7213 15.8537C52.0578 15.765 52.3284 15.6911 52.5332 15.6319C52.8551 15.5285 53.1185 15.41 53.3233 15.277C53.4403 15.1587 53.5246 15.0329 53.5758 14.8999C53.6271 14.7668 53.6526 14.6041 53.6526 14.412C53.6526 13.8943 53.4367 13.4396 53.0052 13.0477C52.5736 12.6558 52.0943 12.4598 51.5676 12.4598C50.9385 12.4598 50.3312 12.6373 49.746 12.9923C49.2631 13.288 48.9779 13.5689 48.8901 13.835H48.7363L48.4511 12.4598C48.9486 12.0014 49.5669 11.6464 50.3056 11.3951C51.0445 11.1437 51.7799 11.018 52.5115 11.018C53.6088 11.018 54.5305 11.2325 55.2767 11.6612C56.2131 12.1937 56.6814 12.9699 56.6814 13.9904ZM85.5422 16.6744C85.5422 17.9168 85.6154 18.8336 85.7616 19.4252C86.0543 20.5933 86.6249 21.1774 87.4735 21.1774C88.1466 21.1774 88.6624 20.771 89.0209 19.9575C89.3793 19.1441 89.5585 18.0276 89.5585 16.6079C89.5585 15.4544 89.4781 14.5967 89.3172 14.0348C89.0246 12.9849 88.4538 12.4598 87.6051 12.4598C86.7565 12.4598 86.1713 12.9849 85.8494 14.0348C85.6446 14.6854 85.5422 15.5654 85.5422 16.6744ZM82.5135 21.8652V5.11743C82.7621 5.14693 83.0439 5.17285 83.3585 5.19519C83.6729 5.21716 83.8961 5.22839 84.0278 5.22839C84.3497 5.22839 84.6422 5.21345 84.9056 5.18408C85.169 5.15433 85.3811 5.13224 85.5422 5.11743V12.7703C85.8347 12.2233 86.2408 11.7944 86.7603 11.4838C87.2797 11.1732 87.8539 11.018 88.4832 11.018C89.8439 11.018 90.9265 11.5578 91.7313 12.6373C92.4483 13.5985 92.8068 14.7964 92.8068 16.2308C92.8068 17.0442 92.7189 17.7837 92.5434 18.4491C92.324 19.2624 91.9947 19.9279 91.5558 20.4455C90.5902 21.599 89.3538 22.1757 87.8467 22.1757C87.2322 22.1757 86.6578 22.0464 86.1238 21.7838C85.5897 21.5213 85.1617 21.1406 84.8398 20.6451C84.474 20.8485 84.1448 21.0518 83.8522 21.2552C83.5596 21.4585 83.2597 21.6619 82.9524 21.8652H82.5135ZM62.3657 16.6744C62.3657 17.9168 62.4389 18.8336 62.5851 19.4252C62.8779 20.5933 63.4484 21.1774 64.297 21.1774C64.9702 21.1774 65.4859 20.771 65.8445 19.9575C66.2028 19.1441 66.382 18.0276 66.382 16.6079C66.382 15.4544 66.3017 14.5967 66.1406 14.0348C65.8481 12.9849 65.2773 12.4598 64.4287 12.4598C63.5801 12.4598 62.9949 12.9849 62.673 14.0348C62.4682 14.6854 62.3657 15.5654 62.3657 16.6744ZM59.3369 21.8652V5.11743C59.5857 5.14693 59.8674 5.17285 60.1819 5.19519C60.4965 5.21716 60.7197 5.22839 60.8514 5.22839C61.1733 5.22839 61.4658 5.21345 61.7292 5.18408C61.9925 5.15433 62.2047 5.13224 62.3657 5.11743V12.7703C62.6583 12.2233 63.0644 11.7944 63.5837 11.4838C64.1031 11.1732 64.6775 11.018 65.3066 11.018C66.6673 11.018 67.7501 11.5578 68.5548 12.6373C69.2717 13.5985 69.6303 14.7964 69.6303 16.2308C69.6303 17.0442 69.5425 17.7837 69.367 18.4491C69.1474 19.2624 68.8182 19.9279 68.3794 20.4455C67.4136 21.599 66.1772 22.1757 64.6703 22.1757C64.0556 22.1757 63.4814 22.0464 62.9473 21.7838C62.4133 21.5213 61.9852 21.1406 61.6634 20.6451C61.2976 20.8485 60.9684 21.0518 60.6756 21.2552C60.3831 21.4585 60.0832 21.6619 59.7758 21.8652H59.3369ZM80.8235 16.6079H74.327C74.327 17.8502 74.5759 18.8262 75.0733 19.536C75.6292 20.3346 76.4707 20.7339 77.5972 20.7339C78.0509 20.7339 78.4971 20.6451 78.936 20.4677C79.3749 20.2903 79.7847 20.0462 80.1651 19.7356L80.4066 19.9353L79.9457 21.1774C79.0093 21.8429 77.9631 22.1757 76.8072 22.1757C74.9928 22.1757 73.5846 21.6619 72.5822 20.6341C71.58 19.6063 71.0789 18.1756 71.0789 16.3417C71.0789 14.7447 71.5398 13.4581 72.4616 12.4821C73.3833 11.5059 74.6344 11.018 76.2146 11.018C77.8387 11.018 79.0384 11.5504 79.8141 12.6152C80.487 13.5468 80.8235 14.8778 80.8235 16.6079ZM74.327 15.5431H77.7948C77.7948 14.6854 77.6996 13.9461 77.5095 13.3249C77.2314 12.4376 76.8072 11.994 76.2365 11.994C75.5342 11.994 75.0148 12.4376 74.6782 13.3249C74.4442 13.9461 74.327 14.6854 74.327 15.5431ZM104 16.6079H97.5035C97.5035 17.8502 97.7524 18.8262 98.2498 19.536C98.8057 20.3346 99.6472 20.7339 100.774 20.7339C101.227 20.7339 101.674 20.6451 102.113 20.4677C102.551 20.2903 102.961 20.0462 103.341 19.7356L103.583 19.9353L103.122 21.1774C102.186 21.8429 101.139 22.1757 99.9837 22.1757C98.1692 22.1757 96.761 21.6619 95.7588 20.6341C94.7564 19.6063 94.2553 18.1756 94.2553 16.3417C94.2553 14.7447 94.7162 13.4581 95.638 12.4821C96.5599 11.5059 97.8109 11.018 99.3911 11.018C101.015 11.018 102.215 11.5504 102.991 12.6152C103.663 13.5468 104 14.8778 104 16.6079ZM97.5035 15.5431H100.971C100.971 14.6854 100.876 13.9461 100.686 13.3249C100.408 12.4376 99.9837 11.994 99.4129 11.994C98.7107 11.994 98.1912 12.4376 97.8548 13.3249C97.6207 13.9461 97.5035 14.6854 97.5035 15.5431Z" fill="#1A1A1A"/>
<path d="M37.3083 33.3648H37.9627V25.7546L38.1942 25.775L38.3654 25.7833L38.5282 25.7732L38.768 25.7546V29.519C38.9811 29.1951 39.2326 28.9374 39.5248 28.7492C39.669 28.6559 39.8216 28.5864 39.9826 28.5407C40.1421 28.4949 40.3182 28.4711 40.5078 28.4711C40.9508 28.4711 41.3248 28.583 41.6337 28.8084C41.9423 29.034 42.1704 29.3274 42.3198 29.6903C42.469 30.0532 42.5429 30.433 42.5429 30.8297C42.5429 31.1809 42.4927 31.5114 42.3937 31.8234C42.2929 32.1337 42.1453 32.4134 41.9507 32.6628C41.7561 32.9104 41.5162 33.1087 41.2309 33.2562C40.9458 33.4038 40.6253 33.4768 40.2679 33.4768C39.6354 33.4768 39.1589 33.2359 38.8368 32.7545C38.7579 32.8137 38.6622 32.8969 38.5466 33.002L38.154 33.3648H37.3083ZM40.2561 28.8984C39.7293 28.8984 39.3452 29.1255 39.1068 29.5817C38.867 30.0362 38.7479 30.6059 38.7479 31.2876C38.7479 31.6453 38.8032 31.9659 38.9157 32.2492C39.0264 32.5322 39.1892 32.7545 39.4038 32.912C39.6187 33.0714 39.8702 33.1512 40.1588 33.1512C40.4239 33.1512 40.6554 33.08 40.8534 32.9392C41.0514 32.7984 41.2075 32.6136 41.3232 32.3831C41.4372 32.1541 41.5228 31.9081 41.5781 31.6505C41.6051 31.5149 41.6234 31.3877 41.637 31.269C41.6504 31.1485 41.6571 31.0163 41.6571 30.8704C41.6571 30.4839 41.6067 30.1447 41.5076 29.8565C41.4071 29.5699 41.2528 29.3376 41.043 29.1612C40.8333 28.9865 40.5716 28.8984 40.2561 28.8984ZM43.2593 30.9196C43.2593 30.5551 43.3231 30.2261 43.4489 29.931C43.5747 29.636 43.7559 29.3782 43.9925 29.1561C44.2273 28.9339 44.4992 28.7645 44.8062 28.6475C45.1115 28.5304 45.4487 28.4711 45.8161 28.4711C46.2742 28.4711 46.6802 28.5711 47.0325 28.7713C47.3848 28.9713 47.6599 29.2613 47.8562 29.6376C48.0527 30.0158 48.1515 30.4533 48.1515 30.9536C48.1515 31.2757 48.0979 31.5877 47.9888 31.8931C47.8814 32.1964 47.7204 32.4696 47.5056 32.7103C47.2909 32.9494 47.0225 33.1376 46.7004 33.2733C46.38 33.4089 46.0242 33.4768 45.6349 33.4768C45.2021 33.4768 44.8029 33.375 44.437 33.1714C44.0713 32.9681 43.7845 32.6713 43.5747 32.2795C43.365 31.8896 43.2593 31.4351 43.2593 30.9196ZM45.8061 28.7866C45.4068 28.7866 45.083 28.8968 44.8363 29.1171C44.5882 29.3376 44.412 29.6224 44.3045 29.9735C44.1989 30.3244 44.1451 30.6925 44.1451 31.0756C44.1451 31.4504 44.1989 31.7896 44.3045 32.0964C44.412 32.4017 44.5831 32.656 44.8179 32.8577C45.0545 33.0596 45.3531 33.1613 45.7121 33.1613C46.0661 33.1613 46.3614 33.0391 46.5947 32.7935C46.8295 32.5492 46.999 32.2492 47.1062 31.8947C47.212 31.5403 47.2657 31.2096 47.2657 30.9027C47.2657 30.65 47.2406 30.4008 47.1919 30.1549C47.1433 29.9073 47.0611 29.6834 46.9486 29.4816C46.8362 29.2799 46.6835 29.1138 46.4939 28.9831C46.3044 28.8526 46.0744 28.7866 45.8061 28.7866ZM53.267 28.5321V33.3952L53.1009 33.3801C53.0504 33.3801 53.0153 33.3767 52.9918 33.37L52.8643 33.3648H52.7418L52.6328 33.375L52.4616 33.3952V32.5203C52.3543 32.7289 52.2218 32.9019 52.0658 33.041C51.9114 33.1799 51.7302 33.2868 51.5238 33.363C51.3174 33.4394 51.096 33.4768 50.8611 33.4768C50.3007 33.4768 49.8831 33.3207 49.6094 33.0105C49.3361 32.6983 49.2002 32.2016 49.2002 31.5198V28.5305L49.4266 28.5508L49.6028 28.5609L49.7655 28.5508L50.0054 28.5321V31.2791C50.0054 31.6437 50.044 31.9523 50.1229 32.2032C50.2017 32.4543 50.331 32.6476 50.5121 32.7798C50.6916 32.912 50.9298 32.9783 51.2235 32.9783C51.5423 32.9783 51.7905 32.8985 51.97 32.7392C52.1514 32.5814 52.2772 32.3744 52.3509 32.1202C52.4248 31.8675 52.4616 31.6063 52.4616 31.3384V28.5305L52.6932 28.5508L52.8643 28.5609L53.0271 28.5508L53.267 28.5321ZM54.8289 27.5214L55.6342 27.2062V28.5321H56.6996L56.6795 28.7356C56.6795 28.795 56.6863 28.8559 56.6996 28.9186H55.6342V31.4724V31.8388C55.6342 32.2236 55.6829 32.5322 55.7818 32.7679C55.8792 33.0036 56.0788 33.1207 56.3807 33.1207C56.416 33.1207 56.4682 33.1155 56.5352 33.1054C56.6023 33.0953 56.7012 33.0765 56.8321 33.0495V33.2936C56.4882 33.4157 56.2063 33.4768 55.9882 33.4768C55.8037 33.4768 55.6426 33.453 55.5034 33.4072C55.3641 33.3614 55.245 33.2767 55.1426 33.1562C55.042 33.0358 54.9631 32.8663 54.9094 32.6476C54.8559 32.4287 54.8289 32.1727 54.8289 31.8777V28.9186H54.2032C54.2183 28.8695 54.2266 28.8051 54.2266 28.7255C54.2266 28.6288 54.2183 28.5643 54.2032 28.5321H54.8289V27.5214ZM58.7028 28.5305V33.3952L58.5367 33.3801C58.4865 33.3801 58.4512 33.3767 58.4276 33.37L58.3002 33.3648H58.1776L58.0686 33.375L57.8975 33.3952V28.5305L58.129 28.5625H58.3002H58.4629L58.7028 28.5305ZM58.8136 26.7923C58.8136 26.9314 58.7632 27.0535 58.6609 27.1568C58.5602 27.2602 58.4395 27.3112 58.3035 27.3112C58.166 27.3112 58.0451 27.2602 57.9412 27.1568C57.8389 27.0535 57.7867 26.9314 57.7867 26.7923C57.7867 26.6499 57.8372 26.5278 57.9361 26.4261C58.0367 26.3243 58.1593 26.2735 58.3035 26.2735C58.4379 26.2735 58.5551 26.3243 58.6593 26.4261C58.7616 26.5278 58.8136 26.6499 58.8136 26.7923ZM63.7948 31.0824C63.7948 30.8739 63.7798 30.6805 63.7512 30.5008C63.7209 30.3228 63.6774 30.1396 63.6186 29.9547C63.5095 29.6139 63.3468 29.3392 63.1289 29.1307C62.9123 28.9221 62.6472 28.8169 62.3352 28.8169C61.4091 28.8169 60.9459 29.4851 60.9459 30.8196C60.9459 31.4453 61.0551 31.9727 61.2732 32.4033C61.4896 32.8341 61.8805 33.0495 62.4442 33.0495C62.7294 33.0495 62.9694 32.9596 63.1656 32.7782C63.3619 32.5983 63.5162 32.3542 63.627 32.0456C63.6807 31.8896 63.7209 31.7353 63.7512 31.5793C63.7798 31.4233 63.7948 31.257 63.7948 31.0824ZM63.7948 29.5801V28.5305L64.0213 28.5508L64.1958 28.5609L64.3635 28.5508L64.6002 28.5305V36L64.4323 35.9829C64.3821 35.9829 64.3468 35.9796 64.3232 35.9728L64.1958 35.9677L64.0565 35.9728L63.9474 35.9829L63.7948 35.9982V32.5203H63.7697C63.466 33.158 62.9493 33.4768 62.2228 33.4768C61.8822 33.4768 61.5768 33.4124 61.3085 33.2835C61.0399 33.1545 60.8101 32.9697 60.6206 32.7324C60.431 32.4933 60.2901 32.2253 60.1978 31.9269C60.1055 31.63 60.0602 31.308 60.0602 30.9638C60.0602 30.4974 60.1391 30.0717 60.2967 29.6903C60.4528 29.3069 60.6826 29.0086 60.9846 28.7932C61.2849 28.5779 61.6473 28.4711 62.07 28.4711C62.3352 28.4711 62.565 28.5066 62.758 28.5796C62.9509 28.6525 63.1153 28.7492 63.2512 28.8662C63.387 28.9831 63.4995 29.1086 63.5884 29.2409C63.6774 29.3647 63.7377 29.4767 63.7697 29.5801H63.7948ZM70.0578 28.5321V33.3952L69.8916 33.3801C69.8413 33.3801 69.806 33.3767 69.7826 33.37L69.6551 33.3648H69.5326L69.4235 33.375L69.2523 33.3952V32.5203C69.1451 32.7289 69.0126 32.9019 68.8565 33.041C68.7022 33.1799 68.5209 33.2868 68.3147 33.363C68.1082 33.4394 67.8867 33.4768 67.6519 33.4768C67.0915 33.4768 66.6738 33.3207 66.4003 33.0105C66.1268 32.6983 65.991 32.2016 65.991 31.5198V28.5305L66.2173 28.5508L66.3936 28.5609L66.5563 28.5508L66.7962 28.5321V31.2791C66.7962 31.6437 66.8348 31.9523 66.9138 32.2032C66.9925 32.4543 67.1218 32.6476 67.3029 32.7798C67.4824 32.912 67.7207 32.9783 68.0142 32.9783C68.3331 32.9783 68.5814 32.8985 68.7609 32.7392C68.9421 32.5814 69.0679 32.3744 69.1417 32.1202C69.2156 31.8675 69.2523 31.6063 69.2523 31.3384V28.5305L69.484 28.5508L69.6551 28.5609L69.8179 28.5508L70.0578 28.5321ZM75.3509 32.3474L75.3409 32.8782C75.0826 33.0631 74.799 33.2088 74.4903 33.319C74.3409 33.3716 74.1951 33.4106 74.0542 33.4378C73.9133 33.4631 73.7656 33.4768 73.6112 33.4768C73.1532 33.4768 72.7421 33.3767 72.3797 33.1782C72.0173 32.9799 71.7371 32.6899 71.5376 32.3067C71.3378 31.9253 71.2372 31.4808 71.2372 30.9739C71.2372 30.4974 71.3262 30.0701 71.5023 29.6919C71.6801 29.3155 71.9419 29.0171 72.2908 28.7983C72.6398 28.5796 73.0575 28.4711 73.5424 28.4711C73.8209 28.4711 74.0809 28.5168 74.3242 28.6101C74.5658 28.7034 74.7823 28.8406 74.9735 29.0239C75.163 29.2087 75.3141 29.4461 75.4248 29.7377C75.5355 30.0294 75.5926 30.3634 75.5926 30.74L75.5876 30.8586L75.5826 30.9638C75.356 30.9638 75.0171 30.9586 74.5658 30.9485C74.1128 30.9383 73.7723 30.9331 73.5424 30.9331H72.1231L72.1129 31.1468C72.1129 31.4114 72.1499 31.6573 72.2254 31.8844C72.3009 32.1116 72.4133 32.3119 72.5626 32.4865C72.7119 32.6593 72.8999 32.7968 73.1247 32.8985C73.3511 32.9985 73.5977 33.0495 73.8628 33.0495C74.3762 33.0495 74.8728 32.8153 75.3509 32.3474ZM72.1129 30.5567H74.8007C74.8007 30.3024 74.7756 30.0684 74.7235 29.8547C74.6732 29.6411 74.5976 29.4512 74.5004 29.2815C74.309 28.9509 73.9886 28.7866 73.5375 28.7866C73.2454 28.7866 72.9954 28.8695 72.7891 29.034C72.581 29.2002 72.4201 29.419 72.3059 29.6937C72.2421 29.8497 72.1952 29.9956 72.1615 30.1328C72.1296 30.2702 72.1129 30.4109 72.1129 30.5567Z" fill="#1A1A1A"/>
<path d="M19.1173 13.1443C18.5704 12.4188 17.9534 11.7592 17.2784 11.179C16.6894 10.6729 16.0585 10.2274 15.3937 9.85105C14.7141 10.2358 14.0708 10.692 13.472 11.211C12.7844 11.8067 12.159 12.4823 11.6091 13.224L11.5708 13.1949C11.3106 12.8803 11.0427 12.5724 10.767 12.272C11.3368 11.5318 11.9728 10.8559 12.6643 10.2568C13.4104 9.60999 14.2262 9.04852 15.0977 8.58701C15.2731 8.49135 15.4907 8.48234 15.6806 8.58244C16.5403 9.03642 17.3447 9.58704 18.0814 10.22C18.7648 10.8074 19.3935 11.4675 19.9563 12.1882C19.6685 12.4991 19.3886 12.8179 19.1173 13.1443V13.1443Z" fill="#1A1A1A"/>
<path d="M15.3618 22.4797C16.4066 19.4014 17.9847 16.5746 19.9834 14.111C22.4413 11.0813 25.5367 8.60023 29.0616 6.87715C29.3706 6.72657 29.7422 6.85765 29.8912 7.1698C29.9494 7.29175 29.9648 7.42432 29.9438 7.54824L25.4458 33.0456C25.3939 33.3522 25.1305 33.5685 24.8324 33.5685L5.84756 33.5695C5.52491 33.5695 5.25955 33.3211 5.22792 33.0034L0.781676 7.55577C0.719759 7.21486 0.943 6.88764 1.2803 6.82568C1.41488 6.80062 1.5475 6.82149 1.66206 6.87752C5.18688 8.60024 8.28232 11.0813 10.7403 14.1106C12.7389 16.5742 14.3169 19.4014 15.3618 22.4797V22.4797ZM20.9417 14.9074C18.7339 17.6288 17.0654 20.8135 16.1012 24.2945H14.6228C13.6586 20.8135 11.9896 17.6288 9.78186 14.9074C7.69894 12.3407 5.13607 10.1863 2.23077 8.58469L6.3645 32.3103H24.3083L28.5089 8.5758C25.5972 10.1785 23.0284 12.3356 20.9417 14.9074Z" fill="#1A1A1A"/>
<path d="M27.9274 0C28.7028 0 29.4052 0.317831 29.9136 0.831671C30.4219 1.34539 30.7363 2.05523 30.7363 2.83913C30.7363 3.62279 30.4216 4.33288 29.9134 4.8466C29.4052 5.36019 28.7028 5.67828 27.9274 5.67828C27.1518 5.67828 26.4493 5.36057 25.941 4.84673C25.4326 4.33289 25.1182 3.62304 25.1182 2.83913C25.1182 2.05523 25.4326 1.34526 25.941 0.831417C26.4491 0.317948 27.1518 0 27.9274 0V0ZM29.0327 1.72185C28.75 1.43611 28.3588 1.25923 27.9274 1.25923C27.4955 1.25923 27.1045 1.4361 26.8218 1.72172C26.5391 2.00758 26.3641 2.40268 26.3641 2.83913C26.3641 3.27534 26.5391 3.67069 26.8218 3.95643C27.1046 4.24229 27.4955 4.41916 27.9274 4.41916C28.3588 4.41916 28.7499 4.24216 29.0326 3.9563C29.3154 3.67056 29.4905 3.27521 29.4905 2.83913C29.4905 2.40281 29.3155 2.00771 29.0327 1.72185Z" fill="#1A1A1A"/>
<path d="M15.3618 1.69067C16.1373 1.69067 16.8397 2.00851 17.3481 2.52222C17.8564 3.03606 18.1709 3.74578 18.1709 4.52969C18.1709 5.31347 17.8562 6.02356 17.3479 6.53715C16.8397 7.05087 16.1373 7.36895 15.3618 7.36895C14.5863 7.36895 13.8839 7.05112 13.3755 6.5374C12.8672 6.02356 12.5527 5.31359 12.5527 4.52969C12.5527 3.748 12.8677 3.03852 13.3768 2.52357L13.3755 2.52222C13.8839 2.00851 14.5863 1.69067 15.3618 1.69067V1.69067ZM16.4673 3.41252C16.1845 3.12666 15.7934 2.94978 15.3618 2.94978C14.9301 2.94978 14.5391 3.12666 14.2563 3.41252H14.2538C13.9727 3.69654 13.7985 4.09163 13.7985 4.52969C13.7985 4.96601 13.9735 5.36136 14.2563 5.6471C14.5391 5.93297 14.9301 6.10983 15.3618 6.10983C15.7934 6.10983 16.1843 5.93271 16.4671 5.64697C16.7499 5.36111 16.9251 4.96589 16.9251 4.52969C16.9251 4.09348 16.7501 3.69826 16.4673 3.41252Z" fill="#1A1A1A"/>
<path d="M2.80918 0C3.58221 0 4.28431 0.318443 4.7938 0.8329L4.79514 0.831671C5.30317 1.34514 5.61776 2.05523 5.61776 2.83913C5.61776 3.62304 5.3033 4.33276 4.7949 4.8466L4.79367 4.84525C4.28418 5.35983 3.58234 5.67828 2.80918 5.67828C2.03358 5.67828 1.33114 5.36057 0.822742 4.84673C0.314467 4.33289 0 3.62304 0 2.83913C0 2.05523 0.314467 1.34526 0.822742 0.831417C1.33089 0.317948 2.03358 0 2.80918 0V0ZM3.91427 1.71926C3.63314 1.43525 3.24235 1.25923 2.80918 1.25923C2.37735 1.25923 1.9862 1.4361 1.70361 1.72172C1.42077 2.00758 1.24577 2.40268 1.24577 2.83913C1.24577 3.27534 1.42077 3.67069 1.70361 3.95643C1.98632 4.24229 2.37735 4.41916 2.80918 4.41916C3.24235 4.41916 3.63302 4.24315 3.91415 3.95889V3.9563C4.19686 3.67056 4.37186 3.27534 4.37186 2.83913C4.37186 2.40268 4.19686 2.00759 3.91427 1.72185V1.71926Z" fill="#1A1A1A"/>
<path d="M4.35645 25.4404H26.2218V26.6493H4.35645V25.4404Z" fill="#1A1A1A"/>
<path d="M11.2314 32.9147V26.3697L12.4673 26.3628V32.9079L11.2314 32.9147Z" fill="#1A1A1A"/>
<path d="M14.7429 32.946V26.4011L15.9788 26.3943V32.939L14.7429 32.946Z" fill="#1A1A1A"/>
<path d="M18.2555 32.946V26.4011L19.4915 26.3943V32.939L18.2555 32.946Z" fill="#1A1A1A"/>
<path d="M21.7679 32.946V26.4011L23.0038 26.3943V32.939L21.7679 32.946Z" fill="#1A1A1A"/>
<path d="M7.7196 32.946V26.4011L8.95549 26.3943V32.939L7.7196 32.946Z" fill="#1A1A1A"/>
</svg>
