<svg width="16" height="16" viewBox="0 0 16 16" fill="none" xmlns="http://www.w3.org/2000/svg">
<g clip-path="url(#clip0_143_4612)">
<path d="M7.04606 0C3.16097 0 0 3.16097 0 7.04606C0 10.9314 3.16097 14.0921 7.04606 14.0921C10.9314 14.0921 14.0921 10.9314 14.0921 7.04606C14.0921 3.16097 10.9314 0 7.04606 0ZM7.04606 12.7913C3.87816 12.7913 1.30081 10.214 1.30081 7.04609C1.30081 3.87819 3.87816 1.30081 7.04606 1.30081C10.214 1.30081 12.7913 3.87816 12.7913 7.04606C12.7913 10.214 10.214 12.7913 7.04606 12.7913Z" fill="#828282"/>
<path d="M15.8095 14.8893L12.0805 11.1603C11.8264 10.9062 11.4149 10.9062 11.1608 11.1603C10.9067 11.4142 10.9067 11.8261 11.1608 12.08L14.8898 15.809C15.0168 15.936 15.1831 15.9996 15.3496 15.9996C15.5159 15.9996 15.6824 15.936 15.8095 15.809C16.0636 15.5551 16.0636 15.1432 15.8095 14.8893Z" fill="#828282"/>
</g>
<defs>
<clipPath id="clip0_143_4612">
<rect width="16" height="16" fill="white"/>
</clipPath>
</defs>
</svg>
