<svg width="40" height="26" viewBox="0 0 40 26" fill="none" xmlns="http://www.w3.org/2000/svg">
<path d="M0 3.25C0 1.45507 1.49238 0 3.33333 0H36.6667C38.5076 0 40 1.45507 40 3.25V22.75C40 24.5449 38.5076 26 36.6667 26H3.33333C1.49238 26 0 24.5449 0 22.75V3.25Z" fill="#002333"/>
<path d="M24.3742 20.6666H15.625V5.33594H24.3742V20.6666Z" fill="#6C6BBD"/>
<path d="M16.1855 13C16.1855 9.89009 17.6789 7.11987 20.0046 5.33464C18.3039 4.02918 16.1575 3.25 13.8249 3.25C8.30262 3.25 3.82617 7.61515 3.82617 13C3.82617 18.3848 8.30262 22.75 13.8249 22.75C16.1575 22.75 18.3039 21.9708 20.0046 20.6654C17.6789 18.8801 16.1855 16.1099 16.1855 13Z" fill="#EB001B"/>
<path d="M36.1742 13C36.1742 18.3848 31.6977 22.75 26.1754 22.75C23.8428 22.75 21.6964 21.9708 19.9951 20.6654C22.3214 18.8801 23.8148 16.1099 23.8148 13C23.8148 9.89009 22.3214 7.11987 19.9951 5.33464C21.6964 4.02918 23.8428 3.25 26.1754 3.25C31.6977 3.25 36.1742 7.61515 36.1742 13Z" fill="#0099DF"/>
</svg>
