<svg width="40" height="26" viewBox="0 0 40 26" fill="none" xmlns="http://www.w3.org/2000/svg">
<path d="M0 3.25C0 1.45507 1.49238 0 3.33333 0H36.6667C38.5076 0 40 1.45507 40 3.25V22.75C40 24.5449 38.5076 26 36.6667 26H3.33333C1.49238 26 0 24.5449 0 22.75V3.25Z" fill="#311E02"/>
<path d="M24.1629 5.30319L15.5664 5.33032L15.8383 20.6963L24.4348 20.6691L24.1629 5.30319Z" fill="#FF5F00"/>
<path d="M16.1288 13.0463C16.0732 9.92079 17.5057 7.14398 19.7512 5.34307C18.0543 4.04379 15.9275 3.26226 13.6226 3.2695C8.16229 3.28666 3.82237 7.6762 3.91846 13.0846C4.01456 18.4931 8.50996 22.8548 13.9703 22.8377C16.2752 22.8304 18.3739 22.0356 20.0245 20.7258C17.7157 18.9664 16.1843 16.1717 16.1288 13.0463Z" fill="#EB001B"/>
<path d="M36.0812 12.9143C36.1773 18.3228 31.8374 22.7123 26.3771 22.7295C24.0722 22.7367 21.9454 21.9552 20.2485 20.6559C22.5215 18.8549 23.9265 16.0782 23.8709 12.9527C23.8154 9.82723 22.2845 7.05973 19.9752 5.27313C21.6258 3.96333 23.7246 3.16852 26.0294 3.16128C31.4897 3.14412 35.9856 7.53308 36.0812 12.9143Z" fill="#F79E1B"/>
</svg>
