<svg width="6" height="9" viewBox="0 0 6 9" fill="none" xmlns="http://www.w3.org/2000/svg">
<path d="M0.242327 0.461835C0.0871179 0.61797 0 0.829181 0 1.04934C0 1.26949 0.0871179 1.4807 0.242327 1.63684L3.19233 4.6285L0.242327 7.5785C0.0871179 7.73464 0 7.94585 0 8.166C0 8.38616 0.0871179 8.59737 0.242327 8.7535C0.319796 8.83161 0.411964 8.8936 0.513513 8.93591C0.615063 8.97822 0.723984 9 0.833994 9C0.944004 9 1.05293 8.97822 1.15447 8.93591C1.25602 8.8936 1.34819 8.83161 1.42566 8.7535L4.95899 5.22017C5.0371 5.1427 5.0991 5.05053 5.1414 4.94898C5.18371 4.84743 5.20549 4.73851 5.20549 4.6285C5.20549 4.51849 5.18371 4.40957 5.1414 4.30802C5.0991 4.20647 5.0371 4.1143 4.95899 4.03684L1.42566 0.461835C1.34819 0.383728 1.25602 0.321733 1.15447 0.279426C1.05293 0.237119 0.944004 0.215336 0.833994 0.215336C0.723984 0.215336 0.615063 0.237119 0.513513 0.279426C0.411964 0.321733 0.319796 0.383728 0.242327 0.461835Z" fill="white"/>
</svg>
