<svg width="40" height="26" viewBox="0 0 40 26" fill="none" xmlns="http://www.w3.org/2000/svg">
<path d="M0 3.25C0 1.45507 1.49238 0 3.33333 0H36.6667C38.5076 0 40 1.45507 40 3.25V22.75C40 24.5449 38.5076 26 36.6667 26H3.33333C1.49238 26 0 24.5449 0 22.75V3.25Z" fill="#002433"/>
<path d="M8.97585 9.3579C8.55804 9.07786 8.01284 8.9375 7.34025 8.9375H4.73633C4.53014 8.9375 4.41622 9.03804 4.39458 9.23893L3.33682 15.7128C3.32582 15.7764 3.34214 15.8345 3.38562 15.8874C3.42884 15.9404 3.48321 15.9667 3.54833 15.9667H4.78518C5.00211 15.9667 5.12135 15.8664 5.14324 15.6653L5.43613 13.9199C5.44683 13.8353 5.48498 13.7666 5.5501 13.7136C5.61516 13.6607 5.69654 13.6262 5.79419 13.6103C5.89184 13.5946 5.98392 13.5867 6.07087 13.5867C6.15758 13.5867 6.2606 13.5921 6.38013 13.6026C6.49937 13.6131 6.57538 13.6183 6.60796 13.6183C7.54097 13.6183 8.27331 13.362 8.80502 12.8487C9.33649 12.3358 9.60253 11.6245 9.60253 10.7145C9.60253 10.0904 9.39345 9.63824 8.97585 9.35776V9.3579ZM7.63329 11.3018C7.57887 11.6721 7.438 11.9153 7.21017 12.0317C6.98229 12.1482 6.65681 12.2063 6.23373 12.2063L5.69664 12.2221L5.97337 10.5242C5.99496 10.4079 6.06545 10.3497 6.18488 10.3497H6.4942C6.92797 10.3497 7.2428 10.4107 7.4381 10.5322C7.63329 10.6539 7.69841 10.9105 7.63329 11.3018V11.3018Z" fill="#0041B8"/>
<path d="M36.4548 8.9375H35.2506C35.131 8.9375 35.0605 8.9957 35.039 9.11215L33.9812 15.7131L33.9648 15.7448C33.9648 15.798 33.9865 15.848 34.0301 15.8956C34.0732 15.9431 34.1277 15.9669 34.1927 15.9669H35.267C35.4728 15.9669 35.5868 15.8667 35.6088 15.6655L36.6666 9.17564V9.15988C36.6665 9.01171 36.5958 8.93769 36.4548 8.93769V8.9375Z" fill="#009CDE"/>
<path d="M21.9054 11.4924C21.9054 11.4396 21.8836 11.3893 21.8405 11.3418C21.797 11.2942 21.7481 11.2703 21.694 11.2703H20.4409C20.3213 11.2703 20.2236 11.3234 20.1478 11.4289L18.4228 13.9043L17.7067 11.5242C17.6522 11.3551 17.533 11.2703 17.3487 11.2703H16.1279C16.0735 11.2703 16.0247 11.2941 15.9816 11.3418C15.9381 11.3893 15.9165 11.4397 15.9165 11.4924C15.9165 11.5137 16.0223 11.8256 16.2338 12.4286C16.4453 13.0318 16.6732 13.6823 16.9173 14.3806C17.1615 15.0786 17.2889 15.4491 17.2998 15.491C16.41 16.676 15.9654 17.3107 15.9654 17.3952C15.9654 17.5328 16.0357 17.6015 16.1769 17.6015H17.43C17.5493 17.6015 17.6469 17.5487 17.723 17.4429L21.8731 11.6034C21.8946 11.5825 21.9054 11.5456 21.9054 11.4923V11.4924Z" fill="#0041B8"/>
<path d="M33.5752 11.2702H32.3383C32.1862 11.2702 32.0944 11.4448 32.0618 11.794C31.7793 11.371 31.2643 11.1592 30.5156 11.1592C29.7344 11.1592 29.0698 11.4449 28.522 12.0161C27.974 12.5873 27.7002 13.2593 27.7002 14.0314C27.7002 14.6557 27.8873 15.1528 28.2616 15.5229C28.6359 15.8934 29.1376 16.0783 29.7671 16.0783C30.0817 16.0783 30.4017 16.0147 30.7272 15.8879C31.0527 15.7609 31.3074 15.5918 31.4922 15.3801C31.4922 15.3907 31.4811 15.4382 31.4597 15.5228C31.4378 15.6075 31.4271 15.6712 31.4271 15.7132C31.4271 15.8826 31.4974 15.967 31.6387 15.967H32.7617C32.9676 15.967 33.0871 15.8667 33.1195 15.6656L33.7869 11.5241C33.7976 11.4606 33.7813 11.4025 33.738 11.3495C33.6944 11.2968 33.6403 11.2702 33.5752 11.2702V11.2702ZM31.4514 14.3963C31.1748 14.6608 30.8411 14.793 30.4505 14.793C30.1358 14.793 29.881 14.7085 29.6856 14.5391C29.4902 14.3702 29.3926 14.1375 29.3926 13.8409C29.3926 13.4498 29.5282 13.119 29.7996 12.8492C30.0704 12.5795 30.4071 12.4446 30.8085 12.4446C31.1121 12.4446 31.3644 12.5319 31.5653 12.7064C31.7658 12.881 31.8665 13.1216 31.8665 13.4285C31.8664 13.8093 31.7281 14.132 31.4514 14.3963Z" fill="#009CDE"/>
<path d="M15.0876 11.2702H13.8507C13.6986 11.2702 13.6065 11.4448 13.574 11.794C13.281 11.371 12.7656 11.1592 12.0279 11.1592C11.2467 11.1592 10.5821 11.4449 10.0342 12.0161C9.48624 12.5873 9.2124 13.2593 9.2124 14.0314C9.2124 14.6557 9.39959 15.1528 9.77391 15.5229C10.1482 15.8934 10.6499 16.0783 11.2793 16.0783C11.5829 16.0783 11.8977 16.0147 12.2232 15.8879C12.5486 15.7609 12.8091 15.5918 13.0043 15.3801C12.9608 15.5069 12.9392 15.6181 12.9392 15.7132C12.9392 15.8826 13.0097 15.967 13.1508 15.967H14.2737C14.4797 15.967 14.5992 15.8667 14.6318 15.6656L15.299 11.5241C15.3097 11.4606 15.2935 11.4025 15.2502 11.3495C15.2068 11.2968 15.1526 11.2702 15.0876 11.2702V11.2702ZM12.9638 14.4042C12.687 14.6637 12.3478 14.793 11.9466 14.793C11.6318 14.793 11.3796 14.7085 11.1898 14.5391C10.9999 14.3702 10.905 14.1375 10.905 13.8409C10.905 13.4498 11.0405 13.119 11.3119 12.8492C11.583 12.5795 11.9193 12.4446 12.3209 12.4446C12.6246 12.4446 12.8768 12.5319 13.0777 12.7064C13.2783 12.881 13.3788 13.1216 13.3788 13.4285C13.3787 13.8199 13.2404 14.1453 12.9638 14.4042V14.4042Z" fill="#0041B8"/>
<path d="M27.4637 9.3579C27.046 9.07786 26.5009 8.9375 25.8282 8.9375H23.2405C23.0234 8.9375 22.904 9.03804 22.8825 9.23893L21.8246 15.7128C21.8136 15.7764 21.8299 15.8345 21.8735 15.8874C21.9165 15.9404 21.971 15.9667 22.0361 15.9667H23.3706C23.5007 15.9667 23.5875 15.898 23.631 15.7605L23.924 13.9199C23.9348 13.8353 23.9727 13.7666 24.0379 13.7136C24.103 13.6607 24.1843 13.6262 24.2821 13.6103C24.3796 13.5946 24.4717 13.5867 24.5587 13.5867C24.6455 13.5867 24.7484 13.5921 24.8679 13.6026C24.9872 13.6131 25.0634 13.6183 25.0957 13.6183C26.0289 13.6183 26.7611 13.362 27.2928 12.8487C27.8245 12.3358 28.0903 11.6245 28.0903 10.7145C28.0903 10.0904 27.8813 9.63819 27.4637 9.35776V9.3579ZM25.7956 11.9682C25.5569 12.1268 25.1988 12.2061 24.7216 12.2061L24.2007 12.222L24.4774 10.5241C24.4989 10.4079 24.5694 10.3496 24.6889 10.3496H24.9817C25.2205 10.3496 25.4103 10.3602 25.5516 10.3813C25.6923 10.4026 25.8282 10.4686 25.9584 10.5796C26.0886 10.6907 26.1537 10.8521 26.1537 11.0636C26.1537 11.508 26.0342 11.8094 25.7956 11.9682Z" fill="#009CDE"/>
</svg>
