<svg width="18" height="18" viewBox="0 0 18 18" fill="none" xmlns="http://www.w3.org/2000/svg">
<path d="M12.0737 3.32614L11.3205 2.57292C11.1252 2.37766 11.1252 2.06108 11.3205 1.86581L11.9881 1.19818C12.1834 1.00292 12.5 1.00292 12.6953 1.19818L16.7842 5.2871C16.9794 5.48236 16.9794 5.79895 16.7842 5.99421L16.1165 6.66184C15.9213 6.8571 15.6047 6.8571 15.4094 6.66184L14.6562 5.90862M12.0737 3.32614L8.61164 6.05038M12.0737 3.32614L14.6562 5.90862M8.61164 6.05038L7.61355 5.05229C7.32497 4.76371 6.88999 4.67945 6.51453 4.83939L3.96073 5.92727C3.63486 6.06609 3.55267 6.49037 3.80313 6.74083L6.60001 9.53771M8.61164 6.05038L11.932 9.37071M14.6562 5.90862L11.932 9.37071M11.932 9.37071L12.9301 10.3688C13.2186 10.6574 13.3029 11.0924 13.143 11.4678L12.0551 14.0216C11.9163 14.3475 11.492 14.4297 11.2415 14.1792L8.44464 11.3823M6.60001 9.53771L1.32364 15.7257C0.931927 16.185 1.53885 16.8163 2.0133 16.443L8.44464 11.3823M6.60001 9.53771L8.44464 11.3823" stroke="#828282"/>
</svg>
