<svg width="24" height="24" viewBox="0 0 24 24" fill="none" xmlns="http://www.w3.org/2000/svg">
<path d="M19.2344 7.5C17.1675 7.5 15.4844 5.81799 15.4844 3.75C15.4844 1.68201 17.1675 0 19.2344 0C21.3015 0 22.9844 1.68201 22.9844 3.75C22.9844 5.81799 21.3015 7.5 19.2344 7.5ZM19.2344 1.5C17.9944 1.5 16.9844 2.50891 16.9844 3.75C16.9844 4.99109 17.9944 6 19.2344 6C20.4744 6 21.4844 4.99109 21.4844 3.75C21.4844 2.50891 20.4744 1.5 19.2344 1.5Z" fill="#1A1A1A"/>
<path d="M19.2344 24C17.1675 24 15.4844 22.318 15.4844 20.25C15.4844 18.182 17.1675 16.5 19.2344 16.5C21.3015 16.5 22.9844 18.182 22.9844 20.25C22.9844 22.318 21.3015 24 19.2344 24ZM19.2344 18C17.9944 18 16.9844 19.0089 16.9844 20.25C16.9844 21.4911 17.9944 22.5 19.2344 22.5C20.4744 22.5 21.4844 21.4911 21.4844 20.25C21.4844 19.0089 20.4744 18 19.2344 18Z" fill="#1A1A1A"/>
<path d="M4.73438 15.75C2.6673 15.75 0.984375 14.068 0.984375 12C0.984375 9.93201 2.6673 8.25 4.73438 8.25C6.80145 8.25 8.48438 9.93201 8.48438 12C8.48438 14.068 6.80145 15.75 4.73438 15.75ZM4.73438 9.75C3.49438 9.75 2.48438 10.7589 2.48438 12C2.48438 13.2411 3.49438 14.25 4.73438 14.25C5.97437 14.25 6.98438 13.2411 6.98438 12C6.98438 10.7589 5.97437 9.75 4.73438 9.75Z" fill="#1A1A1A"/>
<path d="M7.34537 11.2692C7.08426 11.2692 6.8303 11.1331 6.69333 10.8912C6.48826 10.5313 6.61332 10.0731 6.9733 9.86823L16.2523 4.57813C16.6112 4.37122 17.0703 4.49719 17.2743 4.85828C17.4793 5.21826 17.3543 5.67621 16.9943 5.88129L7.71524 11.1712C7.59824 11.2371 7.47135 11.2692 7.34537 11.2692Z" fill="#1A1A1A"/>
<path d="M16.6231 19.5197C16.4971 19.5197 16.37 19.4876 16.253 19.4208L6.97395 14.1307C6.61397 13.9258 6.48909 13.4677 6.69399 13.1077C6.89796 12.7468 7.35609 12.6217 7.71608 12.8277L16.9949 18.1176C17.3549 18.3227 17.48 18.7807 17.2751 19.1406C17.137 19.3836 16.8831 19.5197 16.6231 19.5197Z" fill="#1A1A1A"/>
</svg>
