<svg width="100" height="20" viewBox="0 0 100 20" fill="none" xmlns="http://www.w3.org/2000/svg">
<path d="M10 2L11.7961 7.52786H17.6085L12.9062 10.9443L14.7023 16.4721L10 13.0557L5.29772 16.4721L7.09383 10.9443L2.39155 7.52786H8.20389L10 2Z" fill="#FBE86E"/>
<path d="M30 2L31.7961 7.52786H37.6085L32.9062 10.9443L34.7023 16.4721L30 13.0557L25.2977 16.4721L27.0938 10.9443L22.3915 7.52786H28.2039L30 2Z" fill="#FBE86E"/>
<path d="M50 2L51.7961 7.52786H57.6085L52.9062 10.9443L54.7023 16.4721L50 13.0557L45.2977 16.4721L47.0938 10.9443L42.3915 7.52786H48.2039L50 2Z" fill="#FBE86E"/>
<path d="M70 2L71.7961 7.52786H77.6085L72.9062 10.9443L74.7023 16.4721L70 13.0557L65.2977 16.4721L67.0938 10.9443L62.3915 7.52786H68.2039L70 2Z" fill="#FBE86E"/>
<path d="M90 2L91.7961 7.52786H97.6085L92.9062 10.9443L94.7023 16.4721L90 13.0557L85.2977 16.4721L87.0938 10.9443L82.3915 7.52786H88.2039L90 2Z" fill="#FBE86E"/>
</svg>
