<svg width="12" height="12" viewBox="0 0 12 12" fill="none" xmlns="http://www.w3.org/2000/svg">
<path d="M5.80887 0.618362C5.86695 0.430426 6.13296 0.430427 6.19104 0.618362L7.37281 4.44264C7.3987 4.52644 7.47618 4.58359 7.56389 4.58359H11.4087C11.6 4.58359 11.6821 4.82639 11.5301 4.94252L8.40261 7.33172C8.33601 7.3826 8.30819 7.46962 8.33294 7.5497L9.52342 11.4022C9.58091 11.5882 9.36566 11.7384 9.21092 11.6201L6.12137 9.25993C6.04969 9.20518 5.95022 9.20518 5.87854 9.25993L2.78899 11.6201C2.63425 11.7384 2.419 11.5882 2.47649 11.4022L3.66697 7.5497C3.69172 7.46962 3.6639 7.3826 3.5973 7.33172L0.4698 4.94252C0.317777 4.82639 0.399907 4.58359 0.591213 4.58359H4.43602C4.52373 4.58359 4.60121 4.52644 4.6271 4.44264L5.80887 0.618362Z" fill="#FBE86E"/>
</svg>
