<svg width="521" height="170" viewBox="0 0 521 170" fill="none" xmlns="http://www.w3.org/2000/svg">
<path d="M472.04 122.553L492.516 141.536L520 88.1424L448.038 96.3804" stroke="#1A1A1A" stroke-width="2" stroke-linecap="round" stroke-linejoin="round"/>
<path d="M461.382 109.927L508.24 96.0772L472.038 122.552" stroke="#1A1A1A" stroke-width="2" stroke-linecap="round" stroke-linejoin="round"/>
<path d="M463.801 137.675L461.381 109.927" stroke="#1A1A1A" stroke-width="2" stroke-linecap="round" stroke-linejoin="round"/>
<path d="M472.039 122.552L463.801 137.675" stroke="#1A1A1A" stroke-width="2" stroke-linecap="round" stroke-linejoin="round"/>
<path d="M478.404 128.472L463.801 137.674" stroke="#1A1A1A" stroke-width="2" stroke-linecap="round" stroke-linejoin="round"/>
<path d="M448.039 96.3804L461.382 109.927" stroke="#1A1A1A" stroke-width="2" stroke-linecap="round" stroke-linejoin="round"/>
<path d="M1.17334 1C32.6533 75.9695 84.3214 118.586 156.178 128.851C237.578 140.478 304.128 86.3302 285.395 54.3114C276.397 38.9324 248.59 46.0177 241.853 54.3114C238.396 58.5665 231.204 33.5781 209.446 33.5781C137.091 33.5781 233.042 237.111 427.506 145.134" stroke="#1A1A1A" stroke-width="2" stroke-linecap="round" stroke-dasharray="4 6"/>
</svg>
