<svg width="16" height="16" viewBox="0 0 16 16" fill="none" xmlns="http://www.w3.org/2000/svg">
<g clip-path="url(#clip0_1336_19299)">
<path d="M2 3.33325H3.33333H14" stroke="#C4C4C4" stroke-width="1.5" stroke-linecap="round" stroke-linejoin="round"/>
<path d="M5.33325 3.33341V2.00008C5.33325 1.64646 5.47373 1.30732 5.72378 1.05727C5.97383 0.807224 6.31296 0.666748 6.66659 0.666748H9.33325C9.68687 0.666748 10.026 0.807224 10.2761 1.05727C10.5261 1.30732 10.6666 1.64646 10.6666 2.00008V3.33341M12.6666 3.33341V12.6667C12.6666 13.0204 12.5261 13.3595 12.2761 13.6096C12.026 13.8596 11.6869 14.0001 11.3333 14.0001H4.66659C4.31296 14.0001 3.97382 13.8596 3.72378 13.6096C3.47373 13.3595 3.33325 13.0204 3.33325 12.6667V3.33341H12.6666Z" stroke="#C4C4C4" stroke-width="1.5" stroke-linecap="round" stroke-linejoin="round"/>
</g>
<defs>
<clipPath id="clip0_1336_19299">
<rect width="16" height="16" fill="white"/>
</clipPath>
</defs>
</svg>
