<svg width="40" height="40" viewBox="0 0 40 40" fill="none" xmlns="http://www.w3.org/2000/svg">
<path d="M37.1998 18.0752L36.164 13.9319C36.4472 13.8717 36.6597 13.6204 36.6597 13.3194V12.6514C36.6597 11.2009 35.4796 10.0209 34.0292 10.0209H29.3111V8.64295C29.3111 7.9292 28.7305 7.34857 28.0167 7.34857H3.96656C3.25281 7.34857 2.67219 7.9292 2.67219 8.64295V20C2.67219 20.3458 2.95258 20.6263 3.29852 20.6263C3.64438 20.6263 3.92484 20.3459 3.92484 20V8.64295C3.92484 8.6199 3.94352 8.60123 3.96656 8.60123H28.0166C28.0397 8.60123 28.0584 8.6199 28.0584 8.64295V20.0001C28.0584 20.346 28.3388 20.6265 28.6847 20.6265C29.0305 20.6265 29.311 20.3461 29.311 20.0001V19.2901H36.6992C36.6998 19.2901 36.7003 19.2903 36.7009 19.2903C36.7015 19.2903 36.702 19.2902 36.7026 19.2902C37.6117 19.2908 38.3837 19.8876 38.6488 20.7098H36.7013C36.3555 20.7098 36.075 20.9902 36.075 21.3362V22.6722C36.075 23.7544 36.9553 24.6347 38.0374 24.6347H38.7473V27.3904H37.1096C36.5716 25.837 35.095 24.7181 33.361 24.7181C31.627 24.7181 30.1503 25.837 29.6124 27.3904H29.3109V22.6722C29.3109 22.3263 29.0305 22.0458 28.6845 22.0458C28.3387 22.0458 28.0582 22.3262 28.0582 22.6722V27.3902H15.0638C14.5259 25.8369 13.0492 24.7179 11.3152 24.7179C9.58125 24.7179 8.10453 25.8369 7.56664 27.3902H3.96656C3.94352 27.3902 3.92484 27.3715 3.92484 27.3485V25.9706H6.63883C6.98469 25.9706 7.26516 25.6902 7.26516 25.3443C7.26516 24.9983 6.98477 24.7179 6.63883 24.7179H0.626328C0.280469 24.7179 0 24.9983 0 25.3443C0 25.6902 0.280391 25.9706 0.626328 25.9706H2.67227V27.3485C2.67227 28.0622 3.25289 28.6429 3.96664 28.6429H7.34977C7.34961 28.6568 7.34867 28.6706 7.34867 28.6846C7.34867 30.8718 9.12813 32.6511 11.3152 32.6511C13.5023 32.6511 15.2818 30.8718 15.2818 28.6846C15.2818 28.6705 15.2809 28.6568 15.2807 28.6429H29.3955C29.3954 28.6568 29.3945 28.6706 29.3945 28.6846C29.3945 30.8718 31.1739 32.6511 33.361 32.6511C35.5481 32.6511 37.3276 30.8718 37.3276 28.6846C37.3276 28.6705 37.3266 28.6568 37.3265 28.6429H39.3736C39.7195 28.6429 39.9999 28.3625 39.9999 28.0165V21.336C40 19.6866 38.783 18.3162 37.1998 18.0752ZM29.3111 11.2735H34.0292C34.789 11.2735 35.4071 11.8916 35.4071 12.6514V12.6931H29.3111V11.2735ZM29.3111 18.0376V13.9457H34.8763L35.8993 18.0376H29.3111ZM11.3152 31.3987C9.81875 31.3987 8.60125 30.1813 8.60125 28.6847C8.60125 27.1882 9.81875 25.9708 11.3152 25.9708C12.8117 25.9708 14.0292 27.1882 14.0292 28.6847C14.0292 30.1813 12.8117 31.3987 11.3152 31.3987ZM33.3612 31.3987C31.8647 31.3987 30.6472 30.1813 30.6472 28.6847C30.6472 27.1882 31.8647 25.9708 33.3612 25.9708C34.8577 25.9708 36.0752 27.1882 36.0752 28.6847C36.0752 30.1813 34.8577 31.3987 33.3612 31.3987ZM38.7474 23.382H38.0376C37.6462 23.382 37.3277 23.0636 37.3277 22.6722V21.9623H38.7473V23.382H38.7474Z" fill="#1A1A1A"/>
<path d="M11.3151 27.3903C10.6014 27.3903 10.0208 27.9709 10.0208 28.6847C10.0208 29.3984 10.6014 29.979 11.3151 29.979C12.0289 29.979 12.6095 29.3984 12.6095 28.6847C12.6095 27.9709 12.0289 27.3903 11.3151 27.3903Z" fill="#1A1A1A"/>
<path d="M33.361 27.3903C32.6473 27.3903 32.0667 27.9709 32.0667 28.6847C32.0667 29.3984 32.6473 29.979 33.361 29.979C34.0748 29.979 34.6554 29.3984 34.6554 28.6847C34.6554 27.9709 34.0748 27.3903 33.361 27.3903Z" fill="#1A1A1A"/>
<path d="M26.0126 24.7181H16.6598C16.3139 24.7181 16.0334 24.9985 16.0334 25.3445C16.0334 25.6904 16.3138 25.9708 16.6598 25.9708H26.0126C26.3584 25.9708 26.6389 25.6904 26.6389 25.3445C26.6389 24.9985 26.3585 24.7181 26.0126 24.7181Z" fill="#1A1A1A"/>
<path d="M9.97923 22.046H1.96251C1.61665 22.046 1.33618 22.3263 1.33618 22.6723C1.33618 23.0182 1.61657 23.2986 1.96251 23.2986H9.97923C10.3251 23.2986 10.6056 23.0182 10.6056 22.6723C10.6056 22.3263 10.3251 22.046 9.97923 22.046Z" fill="#1A1A1A"/>
<path d="M21.7792 13.5445C21.5346 13.3 21.138 13.3 20.8935 13.5446L15.3238 19.1142L12.4263 16.2168C12.1817 15.9722 11.7852 15.9722 11.5406 16.2168C11.296 16.4614 11.296 16.8579 11.5406 17.1025L14.8809 20.4428C15.0032 20.5652 15.1635 20.6262 15.3238 20.6262C15.484 20.6262 15.6444 20.5652 15.7666 20.4428L21.7791 14.4303C22.0237 14.1856 22.0237 13.7891 21.7792 13.5445Z" fill="#1A1A1A"/>
</svg>
