<svg width="40" height="26" viewBox="0 0 40 26" fill="none" xmlns="http://www.w3.org/2000/svg">
<path d="M0 3.25C0 1.45507 1.49238 0 3.33333 0H36.6667C38.5076 0 40 1.45507 40 3.25V22.75C40 24.5449 38.5076 26 36.6667 26H3.33333C1.49238 26 0 24.5449 0 22.75V3.25Z" fill="#0C1727"/>
<path d="M34.4253 8.15356H32.3298C31.6962 8.15356 31.2089 8.34362 30.9165 8.96131L26.9204 17.8465H29.7469C29.7469 17.8465 30.2343 16.6587 30.3317 16.3736C30.6241 16.3736 33.4019 16.3736 33.7918 16.3736C33.8892 16.7062 34.1329 17.799 34.1329 17.799H36.667L34.4253 8.15356ZM31.1114 14.378C31.3551 13.8078 32.1836 11.6696 32.1836 11.6696C32.1836 11.7172 32.4272 11.0995 32.5247 10.7669L32.7196 11.6221C32.7196 11.6221 33.2557 13.9503 33.3532 14.4255H31.1114V14.378Z" fill="#3362AB"/>
<path d="M27.1152 14.6628C27.1152 16.6584 25.2634 17.9888 22.3881 17.9888C21.1698 17.9888 20.0002 17.7512 19.3667 17.4662L19.7566 15.2805L20.0977 15.423C20.9749 15.8031 21.5597 15.9457 22.6318 15.9457C23.4115 15.9457 24.24 15.6606 24.24 14.9954C24.24 14.5678 23.8989 14.2827 22.8267 13.8075C21.8033 13.3324 20.4388 12.5721 20.4388 11.1942C20.4388 9.29364 22.3394 8.01074 25.0197 8.01074C26.0431 8.01074 26.9203 8.2008 27.4564 8.43837L27.0665 10.529L26.8716 10.339C26.3842 10.1489 25.7507 9.95884 24.8248 9.95884C23.8014 10.0064 23.3141 10.434 23.3141 10.8141C23.3141 11.2417 23.8989 11.5743 24.8248 12.002C26.3842 12.7147 27.1152 13.5224 27.1152 14.6628Z" fill="#3362AB"/>
<path d="M3.3335 8.24841L3.38223 8.05835H7.57326C8.15806 8.05835 8.59665 8.24841 8.74285 8.8661L9.66878 13.1424C8.74285 10.8617 6.5986 9.00864 3.3335 8.24841Z" fill="#F9B50B"/>
<path d="M15.5658 8.15347L11.3261 17.7989H8.45081L6.01416 9.72145C7.76855 10.8143 9.23053 12.5248 9.7666 13.7127L10.059 14.7105L12.6906 8.10596H15.5658V8.15347Z" fill="#3362AB"/>
<path d="M16.6861 8.10596H19.3664L17.6608 17.7989H14.9805L16.6861 8.10596Z" fill="#3362AB"/>
</svg>
