<svg width="24" height="24" viewBox="0 0 24 24" fill="none" xmlns="http://www.w3.org/2000/svg">
<path d="M12 24C5.38293 24 0 18.6171 0 12C0 5.38293 5.38293 0 12 0C18.6171 0 24 5.38293 24 12C24 18.6171 18.6171 24 12 24ZM12 1.5C6.21002 1.5 1.5 6.21002 1.5 12C1.5 17.79 6.21002 22.5 12 22.5C17.79 22.5 22.5 17.79 22.5 12C22.5 6.21002 17.79 1.5 12 1.5Z" fill="#4F4F4F"/>
<path d="M17.25 18.5001C17.0579 18.5001 16.866 18.4271 16.7199 18.28L11.4699 13.03C11.3289 12.889 11.25 12.6981 11.25 12.5001V5.5C11.25 5.086 11.586 4.75 12 4.75C12.414 4.75 12.75 5.086 12.75 5.5V12.189L17.7801 17.2191C18.0731 17.5121 18.0731 17.9871 17.7801 18.28C17.634 18.4271 17.4421 18.5001 17.25 18.5001Z" fill="#4F4F4F"/>
</svg>
