<svg width="32" height="32" viewBox="0 0 32 32" fill="none" xmlns="http://www.w3.org/2000/svg">
<path d="M29.7656 15.9094C29.7835 15.9412 29.8004 15.9715 29.8162 16C29.8004 16.0286 29.7835 16.0588 29.7656 16.0907C29.6081 16.3706 29.3711 16.7741 29.0574 17.2598C28.4291 18.2327 27.4978 19.528 26.2862 20.8204C23.8492 23.4199 20.367 25.9167 16 25.9167C11.6329 25.9167 8.15079 23.4199 5.7138 20.8204C4.50215 19.528 3.57083 18.2327 2.94251 17.2598C2.62882 16.7741 2.39187 16.3706 2.23439 16.0907C2.21648 16.0588 2.19961 16.0286 2.18377 16C2.19961 15.9715 2.21648 15.9412 2.23439 15.9094C2.39187 15.6294 2.62882 15.226 2.94251 14.7403C3.57083 13.7674 4.50215 12.4721 5.7138 11.1797C8.15079 8.58021 11.6329 6.08337 16 6.08337C20.367 6.08337 23.8492 8.58021 26.2862 11.1797C27.4978 12.4721 28.4291 13.7674 29.0574 14.7403C29.3711 15.226 29.6081 15.6294 29.7656 15.9094Z" stroke="white" stroke-width="1.5" stroke-linecap="round" stroke-linejoin="round"/>
<path d="M16 20C18.2091 20 20 18.2091 20 16C20 13.7909 18.2091 12 16 12C13.7909 12 12 13.7909 12 16C12 18.2091 13.7909 20 16 20Z" stroke="white" stroke-width="1.5" stroke-linecap="round" stroke-linejoin="round"/>
</svg>
