<svg width="18" height="16" viewBox="0 0 18 16" fill="none" xmlns="http://www.w3.org/2000/svg">
<path d="M15.8366 2.37193L15.8369 2.37218C16.193 2.72816 16.4756 3.15082 16.6683 3.61602C16.8611 4.08122 16.9603 4.57984 16.9603 5.08339C16.9603 5.58694 16.8611 6.08556 16.6683 6.55076C16.4756 7.01596 16.193 7.43862 15.8369 7.7946L15.8368 7.79473L14.9534 8.67806L9.00043 14.6311L3.04742 8.67806L2.16409 7.79473C1.445 7.07564 1.04102 6.10034 1.04102 5.08339C1.04102 4.06644 1.445 3.09114 2.16409 2.37205C2.88318 1.65296 3.85848 1.24898 4.87542 1.24898C5.89237 1.24898 6.86767 1.65296 7.58676 2.37205L8.4701 3.25539C8.76299 3.54828 9.23786 3.54828 9.53076 3.25539L10.4141 2.37205L10.4142 2.37193C10.7702 2.01578 11.1929 1.73326 11.6581 1.5405C12.1233 1.34775 12.6219 1.24854 13.1254 1.24854C13.629 1.24854 14.1276 1.34775 14.5928 1.5405C15.058 1.73326 15.4807 2.01578 15.8366 2.37193Z" stroke="#569587" stroke-opacity="0.9" stroke-width="1.5" stroke-linecap="round" stroke-linejoin="round"/>
</svg>
